<svg width="720" height="630" viewBox="0 0 720 630" fill="none" xmlns="http://www.w3.org/2000/svg">
<path d="M358.5 1.5C438.949 1.5 511.751 6.03075 564.415 13.3477C590.758 17.0077 611.999 21.3572 626.624 26.1611C633.946 28.5664 639.521 31.0575 643.235 33.5791C647.012 36.1436 648.5 38.4818 648.5 40.5C648.5 42.5182 647.012 44.8564 643.235 47.4209C639.521 49.9425 633.946 52.4336 626.624 54.8389C611.999 59.6428 590.758 63.9923 564.415 67.6523C511.751 74.9692 438.949 79.5 358.5 79.5C278.051 79.5 205.249 74.9692 152.585 67.6523C126.242 63.9923 105.001 59.6428 90.376 54.8389C83.0535 52.4336 77.4786 49.9425 73.7646 47.4209C69.9876 44.8564 68.5 42.5182 68.5 40.5C68.5 38.4818 69.9876 36.1436 73.7646 33.5791C77.4786 31.0575 83.0535 28.5664 90.376 26.1611C105.001 21.3572 126.242 17.0077 152.585 13.3477C205.249 6.03075 278.051 1.5 358.5 1.5Z" stroke="black" stroke-width="3"/>
<path d="M359.951 194.006C361.916 194.011 363.874 194.021 365.825 194.036L365.814 195.534C367.781 195.549 369.741 195.57 371.693 195.595L371.712 194.096C373.674 194.121 375.627 194.15 377.573 194.186L377.547 195.685C379.518 195.72 381.481 195.761 383.435 195.807L383.468 194.308C385.433 194.354 387.389 194.407 389.336 194.463L389.293 195.96C391.26 196.017 393.219 196.078 395.167 196.145L395.218 194.648C397.187 194.716 399.146 194.788 401.095 194.865L401.036 196.362C402.998 196.44 404.948 196.524 406.888 196.612L406.955 195.115C408.93 195.205 410.893 195.298 412.844 195.398L412.768 196.896C414.73 196.997 416.68 197.103 418.617 197.214L418.701 195.718C420.672 195.831 422.631 195.95 424.575 196.073L424.481 197.568C426.45 197.693 428.405 197.824 430.345 197.959L430.448 196.464C432.41 196.601 434.357 196.741 436.288 196.889L436.175 198.385C438.148 198.535 440.105 198.692 442.046 198.854L442.17 197.361C444.14 197.525 446.093 197.694 448.028 197.869L447.894 199.36C449.851 199.537 451.79 199.719 453.71 199.907L453.856 198.415V198.414C455.834 198.607 457.791 198.81 459.729 199.015L459.571 200.504C461.538 200.712 463.484 200.925 465.407 201.145L465.576 199.655C467.539 199.879 469.48 200.109 471.396 200.345L471.214 201.832C473.18 202.074 475.121 202.322 477.036 202.575L477.232 201.09C479.206 201.351 481.153 201.619 483.071 201.893L482.86 203.375C484.823 203.655 486.757 203.942 488.659 204.234L488.887 202.754C490.85 203.056 492.78 203.366 494.678 203.681L494.434 205.157C496.388 205.482 498.306 205.813 500.188 206.15L500.453 204.675V204.674C502.426 205.028 504.358 205.39 506.249 205.759L505.963 207.231C507.924 207.614 509.84 208.003 511.709 208.4L512.021 206.934V206.933C513.987 207.35 515.901 207.777 517.763 208.211L517.424 209.671C519.377 210.126 521.271 210.589 523.103 211.06L523.475 209.607C525.435 210.111 527.326 210.624 529.146 211.146L528.732 212.589C530.671 213.145 532.526 213.71 534.294 214.285L534.756 212.859C536.705 213.493 538.553 214.138 540.295 214.794L539.767 216.197C541.698 216.925 543.492 217.663 545.144 218.411L545.762 217.046C547.677 217.914 549.412 218.798 550.959 219.697L550.207 220.993C552.039 222.058 553.568 223.126 554.795 224.191L555.776 223.059C557.506 224.56 558.723 226.095 559.393 227.658L558.015 228.249C558.343 229.016 558.5 229.764 558.5 230.5C558.5 231.236 558.343 231.984 558.015 232.751L559.393 233.341C558.723 234.904 557.506 236.439 555.776 237.94L554.795 236.809C553.568 237.874 552.039 238.942 550.207 240.007L550.959 241.302C549.412 242.201 547.677 243.085 545.762 243.953L545.144 242.589C543.492 243.337 541.698 244.075 539.767 244.803L540.295 246.205C538.553 246.861 536.705 247.506 534.756 248.14L534.294 246.715C532.526 247.29 530.671 247.855 528.732 248.411L529.146 249.853C527.326 250.375 525.435 250.888 523.475 251.392L523.103 249.94C521.271 250.411 519.377 250.874 517.424 251.329L517.763 252.788C515.901 253.222 513.987 253.649 512.021 254.066L511.709 252.6C509.84 252.997 507.924 253.386 505.963 253.769L506.249 255.24C504.358 255.609 502.426 255.971 500.453 256.325L500.188 254.85C498.306 255.187 496.388 255.518 494.434 255.843L494.678 257.318C492.78 257.633 490.85 257.943 488.887 258.245L488.659 256.766C486.757 257.058 484.823 257.345 482.86 257.625L483.071 259.106C481.153 259.38 479.206 259.648 477.232 259.909L477.036 258.425C475.121 258.678 473.18 258.926 471.214 259.168L471.396 260.654C469.48 260.89 467.539 261.12 465.576 261.344L465.407 259.855C463.484 260.075 461.538 260.288 459.571 260.496L459.729 261.984C457.791 262.189 455.834 262.392 453.856 262.585L453.71 261.093C451.79 261.281 449.851 261.463 447.894 261.64L448.028 263.13C446.093 263.305 444.14 263.474 442.17 263.638L442.046 262.146C440.106 262.308 438.149 262.465 436.176 262.615L436.288 264.11C434.357 264.258 432.41 264.398 430.448 264.535L430.345 263.041C428.405 263.176 426.45 263.307 424.481 263.432L424.575 264.926C422.631 265.049 420.672 265.168 418.701 265.281L418.617 263.786C416.68 263.897 414.73 264.003 412.768 264.104L412.844 265.601C410.893 265.701 408.93 265.794 406.955 265.884L406.888 264.388C404.948 264.476 402.998 264.56 401.036 264.638L401.095 266.134C399.146 266.211 397.187 266.283 395.218 266.351L395.167 264.855C393.219 264.922 391.26 264.983 389.293 265.04L389.336 266.536C387.389 266.592 385.433 266.645 383.468 266.691L383.435 265.193C381.481 265.239 379.518 265.28 377.547 265.315L377.573 266.813C375.627 266.849 373.674 266.878 371.712 266.903L371.693 265.405C369.741 265.43 367.781 265.451 365.814 265.466L365.825 266.963C363.874 266.978 361.916 266.988 359.951 266.993L359.948 265.496C358.967 265.499 357.984 265.5 357 265.5C356.016 265.5 355.033 265.499 354.052 265.496L354.048 266.993C352.083 266.988 350.125 266.978 348.174 266.963L348.186 265.466C346.219 265.451 344.259 265.43 342.307 265.405L342.287 266.903C340.325 266.878 338.372 266.849 336.426 266.813L336.453 265.315C334.482 265.28 332.519 265.239 330.565 265.193L330.531 266.691C328.566 266.645 326.61 266.592 324.663 266.536L324.707 265.04C322.74 264.983 320.781 264.922 318.833 264.855L318.781 266.351C316.812 266.283 314.853 266.211 312.904 266.134L312.964 264.638C311.002 264.56 309.052 264.476 307.112 264.388L307.044 265.884C305.069 265.794 303.106 265.701 301.155 265.601L301.232 264.104C299.27 264.003 297.32 263.897 295.383 263.786L295.298 265.281C293.327 265.168 291.368 265.049 289.424 264.926L289.519 263.432C287.55 263.307 285.595 263.176 283.655 263.041L283.551 264.535C281.589 264.398 279.642 264.258 277.711 264.11L277.825 262.615C275.852 262.465 273.895 262.308 271.954 262.146L271.829 263.638C269.859 263.474 267.906 263.305 265.971 263.13L266.106 261.64C264.149 261.463 262.21 261.281 260.29 261.093L260.144 262.585H260.143C258.165 262.392 256.208 262.189 254.271 261.984L254.429 260.496C252.462 260.288 250.516 260.075 248.593 259.855L248.423 261.344C246.46 261.12 244.519 260.89 242.603 260.654L242.786 259.168C240.82 258.926 238.879 258.678 236.964 258.425L236.767 259.909C234.793 259.648 232.846 259.38 230.928 259.106L231.14 257.625C229.177 257.345 227.243 257.058 225.341 256.766L225.112 258.245C223.149 257.943 221.219 257.633 219.321 257.318L219.566 255.843C217.612 255.518 215.694 255.187 213.812 254.85L213.547 256.325H213.546C211.573 255.971 209.641 255.609 207.75 255.24L208.037 253.769C206.076 253.386 204.16 252.997 202.291 252.6L201.979 254.066H201.979C200.012 253.649 198.098 253.222 196.236 252.788L196.576 251.329C194.623 250.874 192.729 250.411 190.897 249.94L190.524 251.392C188.564 250.888 186.673 250.375 184.854 249.853L185.268 248.411C183.329 247.855 181.474 247.29 179.706 246.715L179.243 248.14C177.294 247.506 175.446 246.861 173.704 246.205L174.233 244.803C172.302 244.075 170.508 243.337 168.856 242.589L168.237 243.953C166.322 243.085 164.587 242.201 163.04 241.302L163.793 240.007C161.961 238.942 160.432 237.874 159.205 236.809L158.223 237.94C156.493 236.439 155.276 234.904 154.606 233.341L155.985 232.751C155.657 231.984 155.5 231.236 155.5 230.5C155.5 229.764 155.657 229.016 155.985 228.249L154.606 227.658C155.276 226.095 156.493 224.56 158.223 223.059L159.205 224.191C160.432 223.126 161.961 222.058 163.793 220.993L163.04 219.697C164.587 218.798 166.322 217.914 168.237 217.046L168.856 218.411C170.508 217.663 172.302 216.925 174.233 216.197L173.704 214.794C175.446 214.138 177.294 213.493 179.243 212.859L179.706 214.285C181.474 213.71 183.329 213.145 185.268 212.589L184.854 211.146C186.673 210.624 188.564 210.111 190.524 209.607L190.897 211.06C192.729 210.589 194.623 210.126 196.576 209.671L196.236 208.211C198.098 207.777 200.012 207.35 201.979 206.933L201.979 206.934L202.291 208.4C204.16 208.003 206.076 207.614 208.037 207.231L207.75 205.759C209.641 205.39 211.573 205.028 213.546 204.674L213.547 204.675L213.812 206.15C215.694 205.813 217.612 205.482 219.566 205.157L219.321 203.681C221.219 203.366 223.149 203.056 225.112 202.754L225.341 204.234C227.243 203.942 229.177 203.655 231.14 203.375L230.928 201.893C232.846 201.619 234.793 201.351 236.767 201.09L236.964 202.575C238.879 202.322 240.82 202.074 242.786 201.832L242.603 200.345C244.519 200.109 246.46 199.879 248.423 199.655L248.593 201.145C250.516 200.925 252.462 200.712 254.429 200.504L254.271 199.015C256.208 198.81 258.165 198.607 260.143 198.414L260.144 198.415L260.29 199.907C262.21 199.719 264.149 199.537 266.106 199.36L265.971 197.869C267.906 197.694 269.859 197.525 271.829 197.361L271.954 198.854C273.894 198.692 275.851 198.535 277.824 198.385L277.711 196.889C279.642 196.741 281.589 196.601 283.551 196.464L283.655 197.959C285.595 197.824 287.55 197.693 289.519 197.568L289.424 196.073C291.368 195.95 293.327 195.831 295.298 195.718L295.383 197.214C297.32 197.103 299.27 196.997 301.232 196.896L301.155 195.398C303.106 195.298 305.069 195.205 307.044 195.115L307.112 196.612C309.052 196.524 311.002 196.44 312.964 196.362L312.904 194.865C314.853 194.788 316.812 194.716 318.781 194.648L318.833 196.145C320.781 196.078 322.74 196.017 324.707 195.96L324.663 194.463C326.61 194.407 328.566 194.354 330.531 194.308L330.565 195.807C332.519 195.761 334.482 195.72 336.453 195.685L336.426 194.186C338.372 194.15 340.325 194.121 342.287 194.096L342.307 195.595C344.259 195.57 346.219 195.549 348.186 195.534L348.174 194.036C350.125 194.021 352.083 194.011 354.048 194.006L354.052 195.504C355.033 195.501 356.016 195.5 357 195.5C357.984 195.5 358.967 195.501 359.948 195.504L359.951 194.006Z" stroke="black" stroke-width="3" stroke-dasharray="6 6"/>
<path d="M358.5 394.5C391.134 394.5 420.628 397.906 441.918 403.386C452.574 406.129 461.092 409.37 466.908 412.909C472.813 416.503 475.5 420.125 475.5 423.5C475.5 426.875 472.813 430.497 466.908 434.091C461.092 437.63 452.574 440.871 441.918 443.614C420.628 449.094 391.134 452.5 358.5 452.5C325.866 452.5 296.372 449.094 275.082 443.614C264.426 440.871 255.908 437.63 250.092 434.091C244.187 430.497 241.5 426.875 241.5 423.5C241.5 420.125 244.187 416.503 250.092 412.909C255.908 409.37 264.426 406.129 275.082 403.386C296.372 397.906 325.866 394.5 358.5 394.5Z" stroke="black" stroke-width="3"/>
<circle cx="356.5" cy="573.5" r="24" stroke="black" stroke-width="3"/>
<line x1="85.0001" y1="344.5" x2="650.001" y2="344.55" stroke="black" stroke-width="3" stroke-dasharray="4 4"/>
<line x1="85" y1="156.5" x2="650" y2="156.5" stroke="black" stroke-width="3" stroke-dasharray="4 4"/>
<path d="M677.939 608.061C678.525 608.646 679.475 608.646 680.061 608.061L689.607 598.515C690.192 597.929 690.192 596.979 689.607 596.393C689.021 595.808 688.071 595.808 687.485 596.393L679 604.879L670.515 596.393C669.929 595.808 668.979 595.808 668.393 596.393C667.808 596.979 667.808 597.929 668.393 598.515L677.939 608.061ZM679 40H677.5V607H679H680.5V40H679Z" fill="black"/>
<path d="M43.0607 38.9393C42.4749 38.3536 41.5251 38.3536 40.9393 38.9393L31.3934 48.4853C30.8076 49.0711 30.8076 50.0208 31.3934 50.6066C31.9792 51.1924 32.9289 51.1924 33.5147 50.6066L42 42.1213L50.4853 50.6066C51.0711 51.1924 52.0208 51.1924 52.6066 50.6066C53.1924 50.0208 53.1924 49.0711 52.6066 48.4853L43.0607 38.9393ZM42 607H43.5L43.5 40H42H40.5L40.5 607H42Z" fill="black"/>
<path d="M225.075 101.008H229.897C233.111 101.008 235.183 101.96 236.11 103.864C236.444 104.564 236.611 105.394 236.611 106.354C236.611 107.315 236.44 108.137 236.098 108.82C235.756 109.504 235.297 110.065 234.719 110.505C233.596 111.351 232.094 111.774 230.214 111.774H227.517V118H225.075V101.008ZM229.738 109.821C231.211 109.821 232.302 109.536 233.01 108.967C233.718 108.397 234.072 107.51 234.072 106.306C234.072 104.702 233.327 103.669 231.838 103.205C231.317 103.042 230.686 102.961 229.946 102.961H227.517V109.821H229.738ZM238.674 111.677C238.674 109.699 239.305 108.096 240.566 106.867C241.746 105.72 243.207 105.146 244.948 105.146C246.657 105.146 248.085 105.72 249.233 106.867C250.454 108.088 251.064 109.691 251.064 111.677C251.064 113.654 250.45 115.249 249.221 116.462C248.057 117.618 246.629 118.195 244.936 118.195C243.219 118.195 241.762 117.618 240.566 116.462C239.305 115.249 238.674 113.654 238.674 111.677ZM241.213 111.677C241.213 113.76 241.88 115.176 243.215 115.925C243.687 116.185 244.252 116.315 244.912 116.315C245.571 116.315 246.128 116.185 246.584 115.925C247.04 115.656 247.414 115.306 247.707 114.875C248.252 114.045 248.525 112.979 248.525 111.677C248.525 109.61 247.87 108.194 246.56 107.429C246.104 107.16 245.559 107.026 244.924 107.026C244.289 107.026 243.736 107.16 243.264 107.429C242.8 107.689 242.417 108.035 242.116 108.466C241.514 109.313 241.213 110.383 241.213 111.677ZM256.691 122.883H254.25V105.402H256.447L256.545 106.843C257.033 106.192 257.782 105.708 258.791 105.39C259.182 105.268 259.576 105.207 259.975 105.207C260.382 105.207 260.781 105.252 261.171 105.341C261.562 105.423 261.949 105.561 262.331 105.756C262.714 105.944 263.08 106.196 263.43 106.513C263.78 106.822 264.089 107.209 264.357 107.673C264.943 108.674 265.236 109.915 265.236 111.396C265.236 113.658 264.455 115.388 262.893 116.584C261.509 117.65 259.825 118.183 257.839 118.183H257.229C257.033 118.183 256.854 118.179 256.691 118.171V122.883ZM256.691 116.193C256.919 116.258 257.367 116.291 258.034 116.291C258.701 116.291 259.328 116.197 259.914 116.01C260.5 115.823 260.996 115.534 261.403 115.144C262.266 114.313 262.697 113.064 262.697 111.396C262.697 109.825 262.323 108.666 261.574 107.917C261.021 107.364 260.345 107.087 259.548 107.087C258.547 107.087 257.717 107.457 257.058 108.198C256.887 108.385 256.765 108.552 256.691 108.698V116.193ZM276.882 114.912V105.402H279.323V118H277.126L276.906 116.669C275.702 117.687 274.371 118.195 272.915 118.195C271.368 118.195 270.274 117.768 269.631 116.914C268.964 116.043 268.63 114.541 268.63 112.409V105.402H271.071V112.287C271.071 113.793 271.287 114.818 271.718 115.363C272.101 115.852 272.829 116.096 273.903 116.096C274.986 116.096 275.979 115.701 276.882 114.912ZM283.791 99.8359H286.232V113.227C286.232 114.838 286.599 115.786 287.331 116.071C287.575 116.169 287.836 116.218 288.112 116.218C288.389 116.218 288.637 116.185 288.857 116.12V118L288.405 118.049C288.259 118.065 288.116 118.073 287.978 118.073C286.416 118.073 285.288 117.561 284.597 116.535C284.06 115.729 283.791 114.631 283.791 113.239V99.8359ZM292.177 115.754C291.909 115.29 291.693 114.745 291.53 114.118C291.376 113.492 291.298 112.674 291.298 111.665C291.298 110.655 291.514 109.728 291.945 108.881C292.385 108.027 292.954 107.327 293.654 106.782C295.013 105.732 296.702 105.207 298.72 105.207C299.77 105.207 300.563 105.231 301.101 105.28C301.101 105.28 301.495 105.321 302.285 105.402V118H300.087L299.99 116.547C299.501 117.198 298.757 117.683 297.756 118C297.373 118.122 296.979 118.183 296.572 118.183C296.173 118.183 295.778 118.142 295.388 118.061C294.997 117.98 294.606 117.845 294.216 117.658C293.833 117.471 293.467 117.223 293.117 116.914C292.767 116.596 292.454 116.21 292.177 115.754ZM299.843 107.197C299.322 107.132 298.802 107.099 298.281 107.099C297.768 107.099 297.219 107.193 296.633 107.38C296.047 107.559 295.546 107.844 295.131 108.234C294.269 109.048 293.837 110.289 293.837 111.958C293.837 113.536 294.208 114.704 294.948 115.461C295.51 116.022 296.185 116.303 296.975 116.303C297.992 116.303 298.83 115.933 299.489 115.192C299.652 115.005 299.77 114.838 299.843 114.692V107.197ZM310.72 116.071C310.988 116.169 311.395 116.218 311.94 116.218C312.486 116.218 312.941 116.153 313.308 116.022V117.976C313.137 118.016 312.889 118.041 312.563 118.049L311.794 118.073C311.623 118.073 311.493 118.073 311.403 118.073C309.833 118.073 308.673 117.561 307.924 116.535C307.322 115.705 307.021 114.606 307.021 113.239V107.27H305.214V106.123L307.021 105.402L307.607 102.277H309.462V105.402H313.369V107.27H309.462V113.227C309.462 114.822 309.882 115.77 310.72 116.071ZM319.46 101.74C319.46 102.204 319.305 102.562 318.996 102.814C318.695 103.059 318.317 103.181 317.861 103.181C317.405 103.181 317.027 103.059 316.726 102.814C316.433 102.562 316.286 102.204 316.286 101.74C316.286 101.268 316.433 100.91 316.726 100.666C317.027 100.422 317.405 100.3 317.861 100.3C318.317 100.3 318.695 100.422 318.996 100.666C319.305 100.91 319.46 101.268 319.46 101.74ZM316.604 105.402H319.045V118H316.604V105.402ZM322.072 111.677C322.072 109.699 322.703 108.096 323.964 106.867C325.144 105.72 326.605 105.146 328.347 105.146C330.056 105.146 331.484 105.72 332.631 106.867C333.852 108.088 334.462 109.691 334.462 111.677C334.462 113.654 333.848 115.249 332.619 116.462C331.455 117.618 330.027 118.195 328.334 118.195C326.617 118.195 325.161 117.618 323.964 116.462C322.703 115.249 322.072 113.654 322.072 111.677ZM324.611 111.677C324.611 113.76 325.279 115.176 326.613 115.925C327.085 116.185 327.651 116.315 328.31 116.315C328.969 116.315 329.527 116.185 329.982 115.925C330.438 115.656 330.812 115.306 331.105 114.875C331.651 114.045 331.923 112.979 331.923 111.677C331.923 109.61 331.268 108.194 329.958 107.429C329.502 107.16 328.957 107.026 328.322 107.026C327.688 107.026 327.134 107.16 326.662 107.429C326.198 107.689 325.816 108.035 325.515 108.466C324.912 109.313 324.611 110.383 324.611 111.677ZM343.142 107.307C341.929 107.307 340.851 107.718 339.907 108.54V118H337.465V105.402H339.724L339.895 106.77C341.221 105.728 342.592 105.207 344.008 105.207C345.506 105.207 346.604 105.655 347.304 106.55C348.037 107.494 348.403 109.016 348.403 111.115V118H345.961V111.115C345.961 109.097 345.416 107.893 344.326 107.502C343.976 107.372 343.581 107.307 343.142 107.307ZM360.378 101.008H362.819V115.852H370.095V118H360.378V101.008ZM378.798 118.195C374.192 118.195 371.889 115.945 371.889 111.445C371.889 109.508 372.528 107.958 373.806 106.794C374.953 105.736 376.263 105.207 377.736 105.207C379.34 105.207 380.593 105.744 381.496 106.818C382.334 107.819 382.753 109.158 382.753 110.834V111.787H374.428C374.428 114.09 375.368 115.498 377.248 116.01C377.696 116.132 378.383 116.193 379.311 116.193C380.247 116.193 381.162 116.067 382.058 115.815V117.878C381.162 118.09 380.076 118.195 378.798 118.195ZM380.312 109.992C380.312 109.211 380.096 108.552 379.665 108.015C379.16 107.396 378.465 107.087 377.578 107.087C376.642 107.087 375.881 107.384 375.295 107.978C374.758 108.531 374.489 109.203 374.489 109.992H380.312ZM383.718 105.402H386.342L389.772 115.62L393.215 105.402H395.827L391.005 118H388.552L383.718 105.402ZM403.798 118.195C399.192 118.195 396.889 115.945 396.889 111.445C396.889 109.508 397.528 107.958 398.806 106.794C399.953 105.736 401.263 105.207 402.736 105.207C404.34 105.207 405.593 105.744 406.496 106.818C407.334 107.819 407.753 109.158 407.753 110.834V111.787H399.428C399.428 114.09 400.368 115.498 402.248 116.01C402.696 116.132 403.383 116.193 404.311 116.193C405.247 116.193 406.162 116.067 407.058 115.815V117.878C406.162 118.09 405.076 118.195 403.798 118.195ZM405.312 109.992C405.312 109.211 405.096 108.552 404.665 108.015C404.16 107.396 403.465 107.087 402.578 107.087C401.642 107.087 400.881 107.384 400.295 107.978C399.758 108.531 399.489 109.203 399.489 109.992H405.312ZM410.964 99.8359H413.405V113.227C413.405 114.838 413.771 115.786 414.504 116.071C414.748 116.169 415.008 116.218 415.285 116.218C415.562 116.218 415.81 116.185 416.03 116.12V118L415.578 118.049C415.432 118.065 415.289 118.073 415.151 118.073C413.588 118.073 412.461 117.561 411.77 116.535C411.232 115.729 410.964 114.631 410.964 113.239V99.8359ZM427.297 101.008H432.119C435.333 101.008 437.404 101.96 438.332 103.864C438.666 104.564 438.833 105.394 438.833 106.354C438.833 107.315 438.662 108.137 438.32 108.82C437.978 109.504 437.518 110.065 436.94 110.505C435.817 111.351 434.316 111.774 432.436 111.774H429.738V118H427.297V101.008ZM431.96 109.821C433.433 109.821 434.523 109.536 435.231 108.967C435.939 108.397 436.293 107.51 436.293 106.306C436.293 104.702 435.549 103.669 434.06 103.205C433.539 103.042 432.908 102.961 432.167 102.961H429.738V109.821H431.96ZM440.896 111.677C440.896 109.699 441.526 108.096 442.788 106.867C443.968 105.72 445.428 105.146 447.17 105.146C448.879 105.146 450.307 105.72 451.455 106.867C452.675 108.088 453.286 109.691 453.286 111.677C453.286 113.654 452.671 115.249 451.442 116.462C450.279 117.618 448.85 118.195 447.158 118.195C445.441 118.195 443.984 117.618 442.788 116.462C441.526 115.249 440.896 113.654 440.896 111.677ZM443.435 111.677C443.435 113.76 444.102 115.176 445.437 115.925C445.909 116.185 446.474 116.315 447.133 116.315C447.792 116.315 448.35 116.185 448.806 115.925C449.261 115.656 449.636 115.306 449.929 114.875C450.474 114.045 450.747 112.979 450.747 111.677C450.747 109.61 450.091 108.194 448.781 107.429C448.326 107.16 447.78 107.026 447.146 107.026C446.511 107.026 445.957 107.16 445.485 107.429C445.021 107.689 444.639 108.035 444.338 108.466C443.736 109.313 443.435 110.383 443.435 111.677ZM456.813 99.8359H459.255V113.227C459.255 114.838 459.621 115.786 460.354 116.071C460.598 116.169 460.858 116.218 461.135 116.218C461.411 116.218 461.66 116.185 461.879 116.12V118L461.428 118.049C461.281 118.065 461.139 118.073 461 118.073C459.438 118.073 458.311 117.561 457.619 116.535C457.082 115.729 456.813 114.631 456.813 113.239V99.8359ZM467.482 101.74C467.482 102.204 467.328 102.562 467.019 102.814C466.717 103.059 466.339 103.181 465.883 103.181C465.428 103.181 465.049 103.059 464.748 102.814C464.455 102.562 464.309 102.204 464.309 101.74C464.309 101.268 464.455 100.91 464.748 100.666C465.049 100.422 465.428 100.3 465.883 100.3C466.339 100.3 466.717 100.422 467.019 100.666C467.328 100.91 467.482 101.268 467.482 101.74ZM464.626 105.402H467.067V118H464.626V105.402ZM479.958 117.963C479.47 118.118 478.623 118.195 477.419 118.195C476.215 118.195 475.189 118.049 474.343 117.756C473.505 117.463 472.788 117.032 472.194 116.462C470.965 115.282 470.351 113.646 470.351 111.555C470.351 109.528 471.088 107.933 472.561 106.77C473.879 105.728 475.498 105.207 477.419 105.207C478.607 105.207 479.421 105.248 479.86 105.329V107.502C479.177 107.282 478.396 107.172 477.517 107.172C476.646 107.172 475.922 107.294 475.344 107.539C474.766 107.775 474.294 108.096 473.928 108.503C473.236 109.276 472.89 110.293 472.89 111.555C472.89 113.687 473.659 115.107 475.197 115.815C475.743 116.067 476.276 116.193 476.796 116.193C477.317 116.193 477.716 116.181 477.993 116.157C478.278 116.132 478.546 116.1 478.798 116.059C479.335 115.97 479.722 115.876 479.958 115.778V117.963ZM482.863 121.125C483.083 121.19 483.38 121.223 483.754 121.223C484.137 121.223 484.528 121.145 484.926 120.991C485.325 120.844 485.671 120.637 485.964 120.368C486.452 119.929 486.896 119.237 487.294 118.293L482.119 105.402H484.719L488.356 115.437L491.616 105.402H494.191L489.016 119.55C488.625 120.608 488.084 121.418 487.392 121.979C486.481 122.712 485.264 123.078 483.742 123.078C483.604 123.078 483.461 123.07 483.315 123.054L482.863 123.005V121.125Z" fill="black"/>
<path d="M131.075 281.008H135.897C139.111 281.008 141.183 281.96 142.11 283.864C142.444 284.564 142.611 285.394 142.611 286.354C142.611 287.315 142.44 288.137 142.098 288.82C141.756 289.504 141.297 290.065 140.719 290.505C139.596 291.351 138.094 291.774 136.214 291.774H133.517V298H131.075V281.008ZM135.738 289.821C137.211 289.821 138.302 289.536 139.01 288.967C139.718 288.397 140.072 287.51 140.072 286.306C140.072 284.702 139.327 283.669 137.838 283.205C137.317 283.042 136.686 282.961 135.946 282.961H133.517V289.821H135.738ZM144.674 291.677C144.674 289.699 145.305 288.096 146.566 286.867C147.746 285.72 149.207 285.146 150.948 285.146C152.657 285.146 154.085 285.72 155.233 286.867C156.454 288.088 157.064 289.691 157.064 291.677C157.064 293.654 156.45 295.249 155.221 296.462C154.057 297.618 152.629 298.195 150.936 298.195C149.219 298.195 147.762 297.618 146.566 296.462C145.305 295.249 144.674 293.654 144.674 291.677ZM147.213 291.677C147.213 293.76 147.88 295.176 149.215 295.925C149.687 296.185 150.252 296.315 150.912 296.315C151.571 296.315 152.128 296.185 152.584 295.925C153.04 295.656 153.414 295.306 153.707 294.875C154.252 294.045 154.525 292.979 154.525 291.677C154.525 289.61 153.87 288.194 152.56 287.429C152.104 287.16 151.559 287.026 150.924 287.026C150.289 287.026 149.736 287.16 149.264 287.429C148.8 287.689 148.417 288.035 148.116 288.466C147.514 289.313 147.213 290.383 147.213 291.677ZM162.691 302.883H160.25V285.402H162.447L162.545 286.843C163.033 286.192 163.782 285.708 164.791 285.39C165.182 285.268 165.576 285.207 165.975 285.207C166.382 285.207 166.781 285.252 167.171 285.341C167.562 285.423 167.949 285.561 168.331 285.756C168.714 285.944 169.08 286.196 169.43 286.513C169.78 286.822 170.089 287.209 170.357 287.673C170.943 288.674 171.236 289.915 171.236 291.396C171.236 293.658 170.455 295.388 168.893 296.584C167.509 297.65 165.825 298.183 163.839 298.183H163.229C163.033 298.183 162.854 298.179 162.691 298.171V302.883ZM162.691 296.193C162.919 296.258 163.367 296.291 164.034 296.291C164.701 296.291 165.328 296.197 165.914 296.01C166.5 295.823 166.996 295.534 167.403 295.144C168.266 294.313 168.697 293.064 168.697 291.396C168.697 289.825 168.323 288.666 167.574 287.917C167.021 287.364 166.345 287.087 165.548 287.087C164.547 287.087 163.717 287.457 163.058 288.198C162.887 288.385 162.765 288.552 162.691 288.698V296.193ZM182.882 294.912V285.402H185.323V298H183.126L182.906 296.669C181.702 297.687 180.371 298.195 178.915 298.195C177.368 298.195 176.274 297.768 175.631 296.914C174.964 296.043 174.63 294.541 174.63 292.409V285.402H177.071V292.287C177.071 293.793 177.287 294.818 177.718 295.363C178.101 295.852 178.829 296.096 179.903 296.096C180.986 296.096 181.979 295.701 182.882 294.912ZM189.791 279.836H192.232V293.227C192.232 294.838 192.599 295.786 193.331 296.071C193.575 296.169 193.836 296.218 194.112 296.218C194.389 296.218 194.637 296.185 194.857 296.12V298L194.405 298.049C194.259 298.065 194.116 298.073 193.978 298.073C192.416 298.073 191.288 297.561 190.597 296.535C190.06 295.729 189.791 294.631 189.791 293.239V279.836ZM198.177 295.754C197.909 295.29 197.693 294.745 197.53 294.118C197.376 293.492 197.298 292.674 197.298 291.665C197.298 290.655 197.514 289.728 197.945 288.881C198.385 288.027 198.954 287.327 199.654 286.782C201.013 285.732 202.702 285.207 204.72 285.207C205.77 285.207 206.563 285.231 207.101 285.28C207.101 285.28 207.495 285.321 208.285 285.402V298H206.087L205.99 296.547C205.501 297.198 204.757 297.683 203.756 298C203.373 298.122 202.979 298.183 202.572 298.183C202.173 298.183 201.778 298.142 201.388 298.061C200.997 297.98 200.606 297.845 200.216 297.658C199.833 297.471 199.467 297.223 199.117 296.914C198.767 296.596 198.454 296.21 198.177 295.754ZM205.843 287.197C205.322 287.132 204.802 287.099 204.281 287.099C203.768 287.099 203.219 287.193 202.633 287.38C202.047 287.559 201.546 287.844 201.131 288.234C200.269 289.048 199.837 290.289 199.837 291.958C199.837 293.536 200.208 294.704 200.948 295.461C201.51 296.022 202.185 296.303 202.975 296.303C203.992 296.303 204.83 295.933 205.489 295.192C205.652 295.005 205.77 294.838 205.843 294.692V287.197ZM216.72 296.071C216.988 296.169 217.395 296.218 217.94 296.218C218.486 296.218 218.941 296.153 219.308 296.022V297.976C219.137 298.016 218.889 298.041 218.563 298.049L217.794 298.073C217.623 298.073 217.493 298.073 217.403 298.073C215.833 298.073 214.673 297.561 213.924 296.535C213.322 295.705 213.021 294.606 213.021 293.239V287.27H211.214V286.123L213.021 285.402L213.607 282.277H215.462V285.402H219.369V287.27H215.462V293.227C215.462 294.822 215.882 295.77 216.72 296.071ZM225.46 281.74C225.46 282.204 225.305 282.562 224.996 282.814C224.695 283.059 224.317 283.181 223.861 283.181C223.405 283.181 223.027 283.059 222.726 282.814C222.433 282.562 222.286 282.204 222.286 281.74C222.286 281.268 222.433 280.91 222.726 280.666C223.027 280.422 223.405 280.3 223.861 280.3C224.317 280.3 224.695 280.422 224.996 280.666C225.305 280.91 225.46 281.268 225.46 281.74ZM222.604 285.402H225.045V298H222.604V285.402ZM228.072 291.677C228.072 289.699 228.703 288.096 229.964 286.867C231.144 285.72 232.605 285.146 234.347 285.146C236.056 285.146 237.484 285.72 238.631 286.867C239.852 288.088 240.462 289.691 240.462 291.677C240.462 293.654 239.848 295.249 238.619 296.462C237.455 297.618 236.027 298.195 234.334 298.195C232.617 298.195 231.161 297.618 229.964 296.462C228.703 295.249 228.072 293.654 228.072 291.677ZM230.611 291.677C230.611 293.76 231.279 295.176 232.613 295.925C233.085 296.185 233.651 296.315 234.31 296.315C234.969 296.315 235.527 296.185 235.982 295.925C236.438 295.656 236.812 295.306 237.105 294.875C237.651 294.045 237.923 292.979 237.923 291.677C237.923 289.61 237.268 288.194 235.958 287.429C235.502 287.16 234.957 287.026 234.322 287.026C233.688 287.026 233.134 287.16 232.662 287.429C232.198 287.689 231.816 288.035 231.515 288.466C230.912 289.313 230.611 290.383 230.611 291.677ZM249.142 287.307C247.929 287.307 246.851 287.718 245.907 288.54V298H243.465V285.402H245.724L245.895 286.77C247.221 285.728 248.592 285.207 250.008 285.207C251.506 285.207 252.604 285.655 253.304 286.55C254.037 287.494 254.403 289.016 254.403 291.115V298H251.961V291.115C251.961 289.097 251.416 287.893 250.326 287.502C249.976 287.372 249.581 287.307 249.142 287.307ZM276.058 296.816C275.48 297.223 274.74 297.544 273.836 297.78C272.933 298.008 271.826 298.122 270.516 298.122C269.214 298.122 267.9 298.045 266.573 297.89V295.522C267.761 295.791 268.958 295.925 270.162 295.925C271.367 295.925 272.27 295.86 272.872 295.729C273.474 295.591 273.958 295.412 274.325 295.192C275 294.785 275.338 294.257 275.338 293.605C275.338 293.101 275.208 292.71 274.947 292.434C274.532 292.002 273.934 291.608 273.153 291.25L270.028 289.821C268.954 289.317 268.193 288.849 267.745 288.417C266.785 287.49 266.305 286.416 266.305 285.195C266.305 283.942 266.85 282.928 267.94 282.155C269.137 281.309 270.838 280.886 273.043 280.886C274.467 280.886 275.769 280.943 276.949 281.057V283.388C275.948 283.16 274.829 283.046 273.592 283.046C272.363 283.046 271.468 283.111 270.907 283.242C270.353 283.364 269.918 283.522 269.601 283.718C269.023 284.076 268.734 284.548 268.734 285.134C268.734 285.703 268.917 286.175 269.283 286.55C269.609 286.867 270.203 287.233 271.065 287.648L274.276 289.174C275.342 289.679 276.087 290.155 276.51 290.603C276.941 291.05 277.258 291.502 277.462 291.958C277.665 292.405 277.767 292.946 277.767 293.581C277.767 294.208 277.629 294.802 277.352 295.363C277.075 295.917 276.644 296.401 276.058 296.816ZM290.035 297.963C289.547 298.118 288.701 298.195 287.496 298.195C286.292 298.195 285.266 298.049 284.42 297.756C283.582 297.463 282.866 297.032 282.271 296.462C281.043 295.282 280.428 293.646 280.428 291.555C280.428 289.528 281.165 287.933 282.638 286.77C283.956 285.728 285.576 285.207 287.496 285.207C288.684 285.207 289.498 285.248 289.938 285.329V287.502C289.254 287.282 288.473 287.172 287.594 287.172C286.723 287.172 285.999 287.294 285.421 287.539C284.843 287.775 284.371 288.096 284.005 288.503C283.313 289.276 282.967 290.293 282.967 291.555C282.967 293.687 283.736 295.107 285.274 295.815C285.82 296.067 286.353 296.193 286.874 296.193C287.394 296.193 287.793 296.181 288.07 296.157C288.355 296.132 288.623 296.1 288.875 296.059C289.413 295.97 289.799 295.876 290.035 295.778V297.963ZM294.027 295.754C293.758 295.29 293.543 294.745 293.38 294.118C293.225 293.492 293.148 292.674 293.148 291.665C293.148 290.655 293.364 289.728 293.795 288.881C294.234 288.027 294.804 287.327 295.504 286.782C296.863 285.732 298.552 285.207 300.57 285.207C301.62 285.207 302.413 285.231 302.95 285.28C302.95 285.28 303.345 285.321 304.134 285.402V298H301.937L301.839 296.547C301.351 297.198 300.606 297.683 299.605 298C299.223 298.122 298.828 298.183 298.421 298.183C298.023 298.183 297.628 298.142 297.237 298.061C296.847 297.98 296.456 297.845 296.065 297.658C295.683 297.471 295.317 297.223 294.967 296.914C294.617 296.596 294.304 296.21 294.027 295.754ZM301.693 287.197C301.172 287.132 300.651 287.099 300.13 287.099C299.618 287.099 299.068 287.193 298.482 287.38C297.896 287.559 297.396 287.844 296.981 288.234C296.118 289.048 295.687 290.289 295.687 291.958C295.687 293.536 296.057 294.704 296.798 295.461C297.359 296.022 298.035 296.303 298.824 296.303C299.841 296.303 300.68 295.933 301.339 295.192C301.502 295.005 301.62 294.838 301.693 294.692V287.197ZM308.565 279.836H311.007V293.227C311.007 294.838 311.373 295.786 312.105 296.071C312.35 296.169 312.61 296.218 312.887 296.218C313.163 296.218 313.412 296.185 313.631 296.12V298L313.18 298.049C313.033 298.065 312.891 298.073 312.752 298.073C311.19 298.073 310.063 297.561 309.371 296.535C308.834 295.729 308.565 294.631 308.565 293.239V279.836ZM322.274 298.195C317.668 298.195 315.365 295.945 315.365 291.445C315.365 289.508 316.004 287.958 317.281 286.794C318.429 285.736 319.739 285.207 321.212 285.207C322.815 285.207 324.068 285.744 324.972 286.818C325.81 287.819 326.229 289.158 326.229 290.834V291.787H317.904C317.904 294.09 318.844 295.498 320.724 296.01C321.171 296.132 321.859 296.193 322.787 296.193C323.722 296.193 324.638 296.067 325.533 295.815V297.878C324.638 298.09 323.552 298.195 322.274 298.195ZM323.788 289.992C323.788 289.211 323.572 288.552 323.141 288.015C322.636 287.396 321.94 287.087 321.053 287.087C320.117 287.087 319.356 287.384 318.771 287.978C318.233 288.531 317.965 289.203 317.965 289.992H323.788ZM348.775 297.902C347.97 298.049 346.883 298.122 345.516 298.122C344.157 298.122 342.928 297.935 341.83 297.561C340.739 297.186 339.799 296.633 339.01 295.9C337.317 294.33 336.471 292.141 336.471 289.333C336.471 287.502 336.906 285.915 337.777 284.572C338.957 282.757 340.768 281.602 343.209 281.105C343.958 280.959 344.849 280.886 345.882 280.886C346.924 280.886 347.758 280.943 348.385 281.057V283.388C347.815 283.209 346.932 283.12 345.736 283.12C344.548 283.12 343.539 283.266 342.708 283.559C341.878 283.852 341.191 284.271 340.646 284.816C339.555 285.882 339.01 287.388 339.01 289.333C339.01 291.294 339.547 292.849 340.621 293.996C341.785 295.233 343.457 295.852 345.638 295.852C346.916 295.852 347.962 295.754 348.775 295.559V297.902ZM351.021 291.677C351.021 289.699 351.652 288.096 352.914 286.867C354.094 285.72 355.554 285.146 357.296 285.146C359.005 285.146 360.433 285.72 361.581 286.867C362.801 288.088 363.412 289.691 363.412 291.677C363.412 293.654 362.797 295.249 361.568 296.462C360.405 297.618 358.976 298.195 357.284 298.195C355.567 298.195 354.11 297.618 352.914 296.462C351.652 295.249 351.021 293.654 351.021 291.677ZM353.561 291.677C353.561 293.76 354.228 295.176 355.562 295.925C356.035 296.185 356.6 296.315 357.259 296.315C357.918 296.315 358.476 296.185 358.932 295.925C359.387 295.656 359.762 295.306 360.055 294.875C360.6 294.045 360.873 292.979 360.873 291.677C360.873 289.61 360.217 288.194 358.907 287.429C358.451 287.16 357.906 287.026 357.271 287.026C356.637 287.026 356.083 287.16 355.611 287.429C355.147 287.689 354.765 288.035 354.464 288.466C353.862 289.313 353.561 290.383 353.561 291.677ZM368.905 288.54L368.917 298H366.476V285.402H368.722L368.893 286.782C369.788 286.033 370.829 285.545 372.018 285.317C372.4 285.244 372.774 285.207 373.141 285.207C374.662 285.207 375.81 285.85 376.583 287.136C377.999 285.85 379.48 285.207 381.026 285.207C382.556 285.207 383.671 285.667 384.371 286.586C385.071 287.522 385.421 289.069 385.421 291.225V298H382.979V291.311C382.979 289.195 382.471 287.929 381.454 287.514C381.112 287.376 380.713 287.307 380.257 287.307C379.167 287.307 378.166 287.697 377.254 288.479V298H374.813V291.213C374.813 289.764 374.597 288.747 374.166 288.161C373.751 287.591 373.006 287.307 371.932 287.307C370.866 287.307 369.857 287.718 368.905 288.54ZM391.964 302.883H389.522V285.402H391.72L391.817 286.843C392.306 286.192 393.054 285.708 394.063 285.39C394.454 285.268 394.849 285.207 395.248 285.207C395.654 285.207 396.053 285.252 396.444 285.341C396.834 285.423 397.221 285.561 397.604 285.756C397.986 285.944 398.352 286.196 398.702 286.513C399.052 286.822 399.361 287.209 399.63 287.673C400.216 288.674 400.509 289.915 400.509 291.396C400.509 293.658 399.728 295.388 398.165 296.584C396.782 297.65 395.097 298.183 393.111 298.183H392.501C392.306 298.183 392.127 298.179 391.964 298.171V302.883ZM391.964 296.193C392.192 296.258 392.639 296.291 393.307 296.291C393.974 296.291 394.601 296.197 395.187 296.01C395.772 295.823 396.269 295.534 396.676 295.144C397.538 294.313 397.97 293.064 397.97 291.396C397.97 289.825 397.595 288.666 396.847 287.917C396.293 287.364 395.618 287.087 394.82 287.087C393.819 287.087 392.989 287.457 392.33 288.198C392.159 288.385 392.037 288.552 391.964 288.698V296.193ZM412.154 294.912V285.402H414.596V298H412.398L412.179 296.669C410.974 297.687 409.644 298.195 408.187 298.195C406.641 298.195 405.546 297.768 404.903 296.914C404.236 296.043 403.902 294.541 403.902 292.409V285.402H406.344V292.287C406.344 293.793 406.559 294.818 406.991 295.363C407.373 295.852 408.102 296.096 409.176 296.096C410.258 296.096 411.251 295.701 412.154 294.912ZM423.067 296.071C423.336 296.169 423.743 296.218 424.288 296.218C424.833 296.218 425.289 296.153 425.655 296.022V297.976C425.484 298.016 425.236 298.041 424.911 298.049L424.142 298.073C423.971 298.073 423.84 298.073 423.751 298.073C422.18 298.073 421.021 297.561 420.272 296.535C419.67 295.705 419.369 294.606 419.369 293.239V287.27H417.562V286.123L419.369 285.402L419.955 282.277H421.81V285.402H425.716V287.27H421.81V293.227C421.81 294.822 422.229 295.77 423.067 296.071ZM431.808 281.74C431.808 282.204 431.653 282.562 431.344 282.814C431.043 283.059 430.664 283.181 430.208 283.181C429.753 283.181 429.374 283.059 429.073 282.814C428.78 282.562 428.634 282.204 428.634 281.74C428.634 281.268 428.78 280.91 429.073 280.666C429.374 280.422 429.753 280.3 430.208 280.3C430.664 280.3 431.043 280.422 431.344 280.666C431.653 280.91 431.808 281.268 431.808 281.74ZM428.951 285.402H431.393V298H428.951V285.402ZM440.914 287.307C439.701 287.307 438.623 287.718 437.679 288.54V298H435.238V285.402H437.496L437.667 286.77C438.993 285.728 440.365 285.207 441.781 285.207C443.278 285.207 444.377 285.655 445.077 286.55C445.809 287.494 446.175 289.016 446.175 291.115V298H443.734V291.115C443.734 289.097 443.189 287.893 442.098 287.502C441.748 287.372 441.354 287.307 440.914 287.307ZM457.003 302.81C456.295 302.989 455.383 303.078 454.269 303.078C453.162 303.078 452.352 302.997 451.839 302.834V300.661C452.482 300.938 453.268 301.076 454.195 301.076C455.131 301.084 455.819 301.023 456.258 300.893C456.698 300.763 457.044 300.551 457.296 300.258C457.752 299.729 457.979 298.773 457.979 297.39V296.743C457.361 297.361 456.547 297.792 455.538 298.037C455.131 298.134 454.724 298.183 454.317 298.183C453.91 298.183 453.512 298.138 453.121 298.049C452.739 297.959 452.356 297.817 451.974 297.622C451.591 297.418 451.225 297.158 450.875 296.84C450.525 296.515 450.216 296.112 449.947 295.632C449.345 294.59 449.044 293.308 449.044 291.787C449.028 290.379 449.435 289.142 450.265 288.076C450.981 287.148 451.965 286.428 453.219 285.915C454.358 285.443 455.591 285.207 456.917 285.207C458.244 285.207 459.412 285.272 460.421 285.402V297.39C460.421 300.433 459.282 302.24 457.003 302.81ZM457.979 287.185C457.459 287.119 456.946 287.087 456.441 287.087C455.937 287.087 455.371 287.181 454.745 287.368C454.118 287.555 453.569 287.84 453.097 288.222C452.063 289.06 451.546 290.249 451.546 291.787C451.546 293.455 451.949 294.672 452.755 295.437C453.357 296.014 454.094 296.303 454.964 296.303C456.014 296.303 456.897 295.933 457.613 295.192C457.784 295.005 457.906 294.838 457.979 294.692V287.185ZM472.921 281.008H477.743C480.957 281.008 483.028 281.96 483.956 283.864C484.29 284.564 484.457 285.394 484.457 286.354C484.457 287.315 484.286 288.137 483.944 288.82C483.602 289.504 483.142 290.065 482.564 290.505C481.441 291.351 479.94 291.774 478.06 291.774H475.362V298H472.921V281.008ZM477.584 289.821C479.057 289.821 480.147 289.536 480.855 288.967C481.563 288.397 481.917 287.51 481.917 286.306C481.917 284.702 481.173 283.669 479.684 283.205C479.163 283.042 478.532 282.961 477.792 282.961H475.362V289.821H477.584ZM487.862 279.836H490.304V293.227C490.304 294.838 490.67 295.786 491.402 296.071C491.646 296.169 491.907 296.218 492.184 296.218C492.46 296.218 492.708 296.185 492.928 296.12V298L492.477 298.049C492.33 298.065 492.188 298.073 492.049 298.073C490.487 298.073 489.36 297.561 488.668 296.535C488.131 295.729 487.862 294.631 487.862 293.239V279.836ZM496.249 295.754C495.98 295.29 495.764 294.745 495.602 294.118C495.447 293.492 495.37 292.674 495.37 291.665C495.37 290.655 495.585 289.728 496.017 288.881C496.456 288.027 497.026 287.327 497.726 286.782C499.085 285.732 500.773 285.207 502.792 285.207C503.841 285.207 504.635 285.231 505.172 285.28C505.172 285.28 505.567 285.321 506.356 285.402V298H504.159L504.061 296.547C503.573 297.198 502.828 297.683 501.827 298C501.445 298.122 501.05 298.183 500.643 298.183C500.244 298.183 499.85 298.142 499.459 298.061C499.068 297.98 498.678 297.845 498.287 297.658C497.905 297.471 497.538 297.223 497.188 296.914C496.839 296.596 496.525 296.21 496.249 295.754ZM503.915 287.197C503.394 287.132 502.873 287.099 502.352 287.099C501.839 287.099 501.29 287.193 500.704 287.38C500.118 287.559 499.618 287.844 499.203 288.234C498.34 289.048 497.909 290.289 497.909 291.958C497.909 293.536 498.279 294.704 499.02 295.461C499.581 296.022 500.257 296.303 501.046 296.303C502.063 296.303 502.901 295.933 503.561 295.192C503.723 295.005 503.841 294.838 503.915 294.692V287.197ZM514.791 296.071C515.06 296.169 515.466 296.218 516.012 296.218C516.557 296.218 517.013 296.153 517.379 296.022V297.976C517.208 298.016 516.96 298.041 516.634 298.049L515.865 298.073C515.694 298.073 515.564 298.073 515.475 298.073C513.904 298.073 512.744 297.561 511.996 296.535C511.393 295.705 511.092 294.606 511.092 293.239V287.27H509.286V286.123L511.092 285.402L511.678 282.277H513.534V285.402H517.44V287.27H513.534V293.227C513.534 294.822 513.953 295.77 514.791 296.071ZM527.083 281.667C526.791 281.569 526.384 281.521 525.863 281.521C525.342 281.521 524.927 281.569 524.618 281.667C524.317 281.765 524.076 281.907 523.897 282.094C523.588 282.428 523.434 282.973 523.434 283.73V285.402H526.583V287.27H523.434V298H520.992V287.27H519.479V286.123L520.992 285.402V284.06C520.992 283.205 521.065 282.562 521.212 282.131C521.367 281.7 521.55 281.341 521.761 281.057C521.973 280.772 522.258 280.524 522.616 280.312C523.373 279.864 524.435 279.641 525.802 279.641C526.371 279.641 526.799 279.673 527.083 279.738V281.667ZM528.219 291.677C528.219 289.699 528.849 288.096 530.111 286.867C531.291 285.72 532.752 285.146 534.493 285.146C536.202 285.146 537.63 285.72 538.778 286.867C539.999 288.088 540.609 289.691 540.609 291.677C540.609 293.654 539.994 295.249 538.766 296.462C537.602 297.618 536.174 298.195 534.481 298.195C532.764 298.195 531.307 297.618 530.111 296.462C528.849 295.249 528.219 293.654 528.219 291.677ZM530.758 291.677C530.758 293.76 531.425 295.176 532.76 295.925C533.232 296.185 533.797 296.315 534.457 296.315C535.116 296.315 535.673 296.185 536.129 295.925C536.585 295.656 536.959 295.306 537.252 294.875C537.797 294.045 538.07 292.979 538.07 291.677C538.07 289.61 537.415 288.194 536.104 287.429C535.649 287.16 535.104 287.026 534.469 287.026C533.834 287.026 533.281 287.16 532.809 287.429C532.345 287.689 531.962 288.035 531.661 288.466C531.059 289.313 530.758 290.383 530.758 291.677ZM551.62 287.636C551.172 287.506 550.635 287.441 550.008 287.441C549.39 287.441 548.881 287.506 548.482 287.636C548.084 287.758 547.734 287.909 547.433 288.088C546.879 288.413 546.476 288.78 546.224 289.187V298H543.783V285.402H546.126L546.224 287.148C546.834 286.383 547.726 285.809 548.897 285.427C549.321 285.28 549.805 285.207 550.35 285.207C550.895 285.207 551.319 285.248 551.62 285.329V287.636ZM556.527 288.54L556.539 298H554.098V285.402H556.344L556.515 286.782C557.41 286.033 558.451 285.545 559.64 285.317C560.022 285.244 560.396 285.207 560.763 285.207C562.285 285.207 563.432 285.85 564.205 287.136C565.621 285.85 567.102 285.207 568.648 285.207C570.178 285.207 571.293 285.667 571.993 286.586C572.693 287.522 573.043 289.069 573.043 291.225V298H570.602V291.311C570.602 289.195 570.093 287.929 569.076 287.514C568.734 287.376 568.335 287.307 567.879 287.307C566.789 287.307 565.788 287.697 564.876 288.479V298H562.435V291.213C562.435 289.764 562.219 288.747 561.788 288.161C561.373 287.591 560.628 287.307 559.554 287.307C558.488 287.307 557.479 287.718 556.527 288.54ZM580.05 298.195C579.033 298.195 578.003 298.122 576.961 297.976V295.815C578.019 296.067 579.094 296.193 580.184 296.193C582.365 296.193 583.456 295.734 583.456 294.814C583.456 294.464 583.37 294.204 583.199 294.033C582.947 293.764 582.548 293.496 582.003 293.227L580.221 292.409C579.065 291.831 578.316 291.368 577.975 291.018C577.332 290.367 577.01 289.593 577.01 288.698C577.01 287.689 577.478 286.867 578.414 286.232C579.423 285.549 580.839 285.207 582.662 285.207C583.582 285.207 584.509 285.272 585.445 285.402V287.49C584.42 287.303 583.525 287.209 582.76 287.209C582.003 287.209 581.413 287.258 580.99 287.355C580.575 287.453 580.261 287.575 580.05 287.722C579.716 287.95 579.549 288.247 579.549 288.613C579.549 288.971 579.663 289.264 579.891 289.492C580.127 289.711 580.493 289.951 580.99 290.212L582.784 291.079C583.956 291.689 584.709 292.157 585.042 292.482C585.677 293.101 585.995 293.878 585.995 294.814C585.995 295.815 585.49 296.621 584.481 297.231C583.423 297.874 581.946 298.195 580.05 298.195Z" fill="black"/>
<path d="M218.042 470.156H212.928V468.008H225.599V470.156H220.484V485H218.042V470.156ZM229.053 482.754C228.785 482.29 228.569 481.745 228.406 481.118C228.252 480.492 228.174 479.674 228.174 478.665C228.174 477.655 228.39 476.728 228.821 475.881C229.261 475.027 229.83 474.327 230.53 473.782C231.889 472.732 233.578 472.207 235.596 472.207C236.646 472.207 237.439 472.231 237.977 472.28C237.977 472.28 238.371 472.321 239.161 472.402V485H236.963L236.866 483.547C236.377 484.198 235.633 484.683 234.632 485C234.249 485.122 233.855 485.183 233.448 485.183C233.049 485.183 232.654 485.142 232.264 485.061C231.873 484.98 231.482 484.845 231.092 484.658C230.709 484.471 230.343 484.223 229.993 483.914C229.643 483.596 229.33 483.21 229.053 482.754ZM236.719 474.197C236.198 474.132 235.678 474.099 235.157 474.099C234.644 474.099 234.095 474.193 233.509 474.38C232.923 474.559 232.422 474.844 232.007 475.234C231.145 476.048 230.713 477.289 230.713 478.958C230.713 480.536 231.084 481.704 231.824 482.461C232.386 483.022 233.061 483.303 233.851 483.303C234.868 483.303 235.706 482.933 236.365 482.192C236.528 482.005 236.646 481.838 236.719 481.692V474.197ZM251.075 474.636C250.627 474.506 250.09 474.441 249.463 474.441C248.845 474.441 248.336 474.506 247.938 474.636C247.539 474.758 247.189 474.909 246.888 475.088C246.334 475.413 245.931 475.78 245.679 476.187V485H243.238V472.402H245.582L245.679 474.148C246.29 473.383 247.181 472.809 248.353 472.427C248.776 472.28 249.26 472.207 249.805 472.207C250.35 472.207 250.774 472.248 251.075 472.329V474.636ZM260.657 489.81C259.949 489.989 259.038 490.078 257.923 490.078C256.816 490.078 256.006 489.997 255.494 489.834V487.661C256.137 487.938 256.922 488.076 257.85 488.076C258.785 488.084 259.473 488.023 259.913 487.893C260.352 487.763 260.698 487.551 260.95 487.258C261.406 486.729 261.634 485.773 261.634 484.39V483.743C261.015 484.361 260.201 484.792 259.192 485.037C258.785 485.134 258.379 485.183 257.972 485.183C257.565 485.183 257.166 485.138 256.775 485.049C256.393 484.959 256.01 484.817 255.628 484.622C255.245 484.418 254.879 484.158 254.529 483.84C254.179 483.515 253.87 483.112 253.602 482.632C252.999 481.59 252.698 480.308 252.698 478.787C252.682 477.379 253.089 476.142 253.919 475.076C254.635 474.148 255.62 473.428 256.873 472.915C258.012 472.443 259.245 472.207 260.572 472.207C261.898 472.207 263.066 472.272 264.075 472.402V484.39C264.075 487.433 262.936 489.24 260.657 489.81ZM261.634 474.185C261.113 474.119 260.6 474.087 260.096 474.087C259.591 474.087 259.026 474.181 258.399 474.368C257.772 474.555 257.223 474.84 256.751 475.222C255.717 476.06 255.201 477.249 255.201 478.787C255.201 480.455 255.604 481.672 256.409 482.437C257.011 483.014 257.748 483.303 258.619 483.303C259.668 483.303 260.551 482.933 261.268 482.192C261.438 482.005 261.561 481.838 261.634 481.692V474.185ZM273.951 485.195C269.345 485.195 267.042 482.945 267.042 478.445C267.042 476.508 267.68 474.958 268.958 473.794C270.105 472.736 271.416 472.207 272.889 472.207C274.492 472.207 275.745 472.744 276.648 473.818C277.487 474.819 277.906 476.158 277.906 477.834V478.787H269.581C269.581 481.09 270.521 482.498 272.4 483.01C272.848 483.132 273.536 483.193 274.463 483.193C275.399 483.193 276.315 483.067 277.21 482.815V484.878C276.315 485.09 275.228 485.195 273.951 485.195ZM275.464 476.992C275.464 476.211 275.249 475.552 274.817 475.015C274.313 474.396 273.617 474.087 272.73 474.087C271.794 474.087 271.033 474.384 270.447 474.978C269.91 475.531 269.642 476.203 269.642 476.992H275.464ZM285.12 483.071C285.389 483.169 285.796 483.218 286.341 483.218C286.886 483.218 287.342 483.153 287.708 483.022V484.976C287.537 485.016 287.289 485.041 286.963 485.049L286.194 485.073C286.023 485.073 285.893 485.073 285.804 485.073C284.233 485.073 283.073 484.561 282.325 483.535C281.722 482.705 281.421 481.606 281.421 480.239V474.27H279.615V473.123L281.421 472.402L282.007 469.277H283.863V472.402H287.769V474.27H283.863V480.227C283.863 481.822 284.282 482.77 285.12 483.071ZM296.9 485.195C292.294 485.195 289.991 482.945 289.991 478.445C289.991 476.508 290.63 474.958 291.907 473.794C293.055 472.736 294.365 472.207 295.838 472.207C297.441 472.207 298.694 472.744 299.598 473.818C300.436 474.819 300.855 476.158 300.855 477.834V478.787H292.53C292.53 481.09 293.47 482.498 295.35 483.01C295.797 483.132 296.485 483.193 297.413 483.193C298.348 483.193 299.264 483.067 300.159 482.815V484.878C299.264 485.09 298.178 485.195 296.9 485.195ZM298.414 476.992C298.414 476.211 298.198 475.552 297.767 475.015C297.262 474.396 296.566 474.087 295.679 474.087C294.743 474.087 293.982 474.384 293.396 474.978C292.859 475.531 292.591 476.203 292.591 476.992H298.414ZM305.445 473.782C306.153 473.236 306.946 472.838 307.825 472.585C308.712 472.333 309.485 472.207 310.145 472.207C310.804 472.207 311.312 472.223 311.67 472.256V466.836H314.1V485H311.915L311.817 483.547C311.32 484.207 310.568 484.695 309.559 485.012C309.168 485.134 308.769 485.195 308.362 485.195C307.964 485.195 307.569 485.155 307.178 485.073C306.788 484.992 306.397 484.858 306.006 484.67C305.624 484.475 305.258 484.223 304.908 483.914C304.558 483.596 304.244 483.21 303.968 482.754C303.382 481.753 303.089 480.569 303.089 479.202C303.089 477.834 303.305 476.728 303.736 475.881C304.175 475.027 304.745 474.327 305.445 473.782ZM306.922 475.234C306.507 475.625 306.185 476.13 305.958 476.748C305.738 477.358 305.628 478.103 305.628 478.982C305.628 479.853 305.734 480.573 305.945 481.143C306.157 481.704 306.421 482.144 306.739 482.461C307.3 483.031 307.976 483.315 308.765 483.315C309.782 483.315 310.625 482.941 311.292 482.192C311.463 482.005 311.585 481.838 311.658 481.692V474.185L311.414 474.16C311.04 474.111 310.592 474.087 310.071 474.087C309.559 474.087 309.009 474.181 308.423 474.368C307.837 474.547 307.337 474.836 306.922 475.234ZM337.977 484.902C337.171 485.049 336.084 485.122 334.717 485.122C333.358 485.122 332.129 484.935 331.031 484.561C329.94 484.186 329 483.633 328.211 482.9C326.518 481.33 325.672 479.141 325.672 476.333C325.672 474.502 326.107 472.915 326.978 471.572C328.158 469.757 329.969 468.602 332.41 468.105C333.159 467.959 334.05 467.886 335.083 467.886C336.125 467.886 336.959 467.943 337.586 468.057V470.388C337.016 470.209 336.133 470.12 334.937 470.12C333.749 470.12 332.74 470.266 331.91 470.559C331.08 470.852 330.392 471.271 329.847 471.816C328.756 472.882 328.211 474.388 328.211 476.333C328.211 478.294 328.748 479.849 329.822 480.996C330.986 482.233 332.658 482.852 334.839 482.852C336.117 482.852 337.163 482.754 337.977 482.559V484.902ZM340.223 478.677C340.223 476.699 340.853 475.096 342.115 473.867C343.295 472.72 344.756 472.146 346.497 472.146C348.206 472.146 349.634 472.72 350.782 473.867C352.002 475.088 352.613 476.691 352.613 478.677C352.613 480.654 351.998 482.249 350.77 483.462C349.606 484.618 348.178 485.195 346.485 485.195C344.768 485.195 343.311 484.618 342.115 483.462C340.853 482.249 340.223 480.654 340.223 478.677ZM342.762 478.677C342.762 480.76 343.429 482.176 344.764 482.925C345.236 483.185 345.801 483.315 346.46 483.315C347.12 483.315 347.677 483.185 348.133 482.925C348.589 482.656 348.963 482.306 349.256 481.875C349.801 481.045 350.074 479.979 350.074 478.677C350.074 476.61 349.419 475.194 348.108 474.429C347.653 474.16 347.107 474.026 346.473 474.026C345.838 474.026 345.285 474.16 344.812 474.429C344.349 474.689 343.966 475.035 343.665 475.466C343.063 476.313 342.762 477.383 342.762 478.677ZM361.292 474.307C360.079 474.307 359.001 474.718 358.057 475.54V485H355.616V472.402H357.874L358.045 473.77C359.371 472.728 360.743 472.207 362.159 472.207C363.656 472.207 364.755 472.655 365.455 473.55C366.187 474.494 366.553 476.016 366.553 478.115V485H364.112V478.115C364.112 476.097 363.567 474.893 362.476 474.502C362.126 474.372 361.731 474.307 361.292 474.307ZM374.744 483.071C375.013 483.169 375.42 483.218 375.965 483.218C376.51 483.218 376.966 483.153 377.332 483.022V484.976C377.161 485.016 376.913 485.041 376.587 485.049L375.818 485.073C375.647 485.073 375.517 485.073 375.428 485.073C373.857 485.073 372.697 484.561 371.949 483.535C371.347 482.705 371.045 481.606 371.045 480.239V474.27H369.239V473.123L371.045 472.402L371.631 469.277H373.487V472.402H377.393V474.27H373.487V480.227C373.487 481.822 373.906 482.77 374.744 483.071ZM388.648 474.636C388.2 474.506 387.663 474.441 387.037 474.441C386.418 474.441 385.91 474.506 385.511 474.636C385.112 474.758 384.762 474.909 384.461 475.088C383.908 475.413 383.505 475.78 383.252 476.187V485H380.811V472.402H383.155L383.252 474.148C383.863 473.383 384.754 472.809 385.926 472.427C386.349 472.28 386.833 472.207 387.378 472.207C387.924 472.207 388.347 472.248 388.648 472.329V474.636ZM390.247 478.677C390.247 476.699 390.878 475.096 392.139 473.867C393.319 472.72 394.78 472.146 396.521 472.146C398.23 472.146 399.659 472.72 400.806 473.867C402.027 475.088 402.637 476.691 402.637 478.677C402.637 480.654 402.023 482.249 400.794 483.462C399.63 484.618 398.202 485.195 396.509 485.195C394.792 485.195 393.335 484.618 392.139 483.462C390.878 482.249 390.247 480.654 390.247 478.677ZM392.786 478.677C392.786 480.76 393.453 482.176 394.788 482.925C395.26 483.185 395.826 483.315 396.485 483.315C397.144 483.315 397.701 483.185 398.157 482.925C398.613 482.656 398.987 482.306 399.28 481.875C399.826 481.045 400.098 479.979 400.098 478.677C400.098 476.61 399.443 475.194 398.133 474.429C397.677 474.16 397.132 474.026 396.497 474.026C395.862 474.026 395.309 474.16 394.837 474.429C394.373 474.689 393.991 475.035 393.689 475.466C393.087 476.313 392.786 477.383 392.786 478.677ZM406.165 466.836H408.606V480.227C408.606 481.838 408.973 482.786 409.705 483.071C409.949 483.169 410.21 483.218 410.486 483.218C410.763 483.218 411.011 483.185 411.231 483.12V485L410.779 485.049C410.633 485.065 410.49 485.073 410.352 485.073C408.79 485.073 407.662 484.561 406.971 483.535C406.434 482.729 406.165 481.631 406.165 480.239V466.836ZM431.983 483.816C431.405 484.223 430.665 484.544 429.761 484.78C428.858 485.008 427.751 485.122 426.441 485.122C425.139 485.122 423.825 485.045 422.498 484.89V482.522C423.686 482.791 424.882 482.925 426.087 482.925C427.291 482.925 428.195 482.86 428.797 482.729C429.399 482.591 429.883 482.412 430.25 482.192C430.925 481.785 431.263 481.257 431.263 480.605C431.263 480.101 431.132 479.71 430.872 479.434C430.457 479.002 429.859 478.608 429.078 478.25L425.953 476.821C424.878 476.317 424.118 475.849 423.67 475.417C422.71 474.49 422.229 473.416 422.229 472.195C422.229 470.942 422.775 469.928 423.865 469.155C425.062 468.309 426.762 467.886 428.968 467.886C430.392 467.886 431.694 467.943 432.874 468.057V470.388C431.873 470.16 430.754 470.046 429.517 470.046C428.288 470.046 427.393 470.111 426.832 470.242C426.278 470.364 425.843 470.522 425.525 470.718C424.948 471.076 424.659 471.548 424.659 472.134C424.659 472.703 424.842 473.175 425.208 473.55C425.534 473.867 426.128 474.233 426.99 474.648L430.201 476.174C431.267 476.679 432.011 477.155 432.435 477.603C432.866 478.05 433.183 478.502 433.387 478.958C433.59 479.405 433.692 479.946 433.692 480.581C433.692 481.208 433.554 481.802 433.277 482.363C433 482.917 432.569 483.401 431.983 483.816ZM441.443 483.071C441.712 483.169 442.119 483.218 442.664 483.218C443.209 483.218 443.665 483.153 444.031 483.022V484.976C443.86 485.016 443.612 485.041 443.287 485.049L442.518 485.073C442.347 485.073 442.216 485.073 442.127 485.073C440.556 485.073 439.397 484.561 438.648 483.535C438.046 482.705 437.745 481.606 437.745 480.239V474.27H435.938V473.123L437.745 472.402L438.331 469.277H440.186V472.402H444.092V474.27H440.186V480.227C440.186 481.822 440.605 482.77 441.443 483.071ZM455.555 481.912V472.402H457.996V485H455.799L455.579 483.669C454.375 484.687 453.044 485.195 451.587 485.195C450.041 485.195 448.947 484.768 448.304 483.914C447.636 483.043 447.303 481.541 447.303 479.409V472.402H449.744V479.287C449.744 480.793 449.96 481.818 450.391 482.363C450.774 482.852 451.502 483.096 452.576 483.096C453.659 483.096 454.651 482.701 455.555 481.912ZM463.843 473.782C464.551 473.236 465.345 472.838 466.224 472.585C467.111 472.333 467.884 472.207 468.543 472.207C469.202 472.207 469.711 472.223 470.069 472.256V466.836H472.498V485H470.313L470.215 483.547C469.719 484.207 468.966 484.695 467.957 485.012C467.566 485.134 467.168 485.195 466.761 485.195C466.362 485.195 465.967 485.155 465.577 485.073C465.186 484.992 464.795 484.858 464.405 484.67C464.022 484.475 463.656 484.223 463.306 483.914C462.956 483.596 462.643 483.21 462.366 482.754C461.78 481.753 461.487 480.569 461.487 479.202C461.487 477.834 461.703 476.728 462.134 475.881C462.574 475.027 463.143 474.327 463.843 473.782ZM465.32 475.234C464.905 475.625 464.584 476.13 464.356 476.748C464.136 477.358 464.026 478.103 464.026 478.982C464.026 479.853 464.132 480.573 464.344 481.143C464.555 481.704 464.82 482.144 465.137 482.461C465.699 483.031 466.374 483.315 467.164 483.315C468.181 483.315 469.023 482.941 469.69 482.192C469.861 482.005 469.983 481.838 470.057 481.692V474.185L469.812 474.16C469.438 474.111 468.991 474.087 468.47 474.087C467.957 474.087 467.408 474.181 466.822 474.368C466.236 474.547 465.735 474.836 465.32 475.234ZM479.358 468.74C479.358 469.204 479.204 469.562 478.895 469.814C478.593 470.059 478.215 470.181 477.759 470.181C477.304 470.181 476.925 470.059 476.624 469.814C476.331 469.562 476.185 469.204 476.185 468.74C476.185 468.268 476.331 467.91 476.624 467.666C476.925 467.422 477.304 467.3 477.759 467.3C478.215 467.3 478.593 467.422 478.895 467.666C479.204 467.91 479.358 468.268 479.358 468.74ZM476.502 472.402H478.943V485H476.502V472.402ZM488.672 485.195C484.066 485.195 481.763 482.945 481.763 478.445C481.763 476.508 482.402 474.958 483.68 473.794C484.827 472.736 486.137 472.207 487.61 472.207C489.214 472.207 490.467 472.744 491.37 473.818C492.208 474.819 492.627 476.158 492.627 477.834V478.787H484.302C484.302 481.09 485.242 482.498 487.122 483.01C487.57 483.132 488.257 483.193 489.185 483.193C490.121 483.193 491.036 483.067 491.932 482.815V484.878C491.036 485.09 489.95 485.195 488.672 485.195ZM490.186 476.992C490.186 476.211 489.97 475.552 489.539 475.015C489.035 474.396 488.339 474.087 487.452 474.087C486.516 474.087 485.755 474.384 485.169 474.978C484.632 475.531 484.363 476.203 484.363 476.992H490.186ZM498.401 485.195C497.384 485.195 496.355 485.122 495.313 484.976V482.815C496.371 483.067 497.445 483.193 498.536 483.193C500.717 483.193 501.807 482.734 501.807 481.814C501.807 481.464 501.722 481.204 501.551 481.033C501.299 480.764 500.9 480.496 500.354 480.227L498.572 479.409C497.417 478.831 496.668 478.368 496.326 478.018C495.683 477.367 495.362 476.593 495.362 475.698C495.362 474.689 495.83 473.867 496.766 473.232C497.775 472.549 499.191 472.207 501.014 472.207C501.933 472.207 502.861 472.272 503.797 472.402V474.49C502.771 474.303 501.876 474.209 501.111 474.209C500.354 474.209 499.764 474.258 499.341 474.355C498.926 474.453 498.613 474.575 498.401 474.722C498.068 474.95 497.901 475.247 497.901 475.613C497.901 475.971 498.015 476.264 498.243 476.492C498.479 476.711 498.845 476.951 499.341 477.212L501.136 478.079C502.308 478.689 503.06 479.157 503.394 479.482C504.029 480.101 504.346 480.878 504.346 481.814C504.346 482.815 503.842 483.621 502.833 484.231C501.775 484.874 500.298 485.195 498.401 485.195Z" fill="black"/>
<path d="M237.904 607.008H240.346V624H237.904V607.008ZM249.818 613.307C248.606 613.307 247.528 613.718 246.583 614.54V624H244.142V611.402H246.4L246.571 612.77C247.898 611.728 249.269 611.207 250.685 611.207C252.182 611.207 253.281 611.655 253.981 612.55C254.713 613.494 255.08 615.016 255.08 617.115V624H252.638V617.115C252.638 615.097 252.093 613.893 251.002 613.502C250.653 613.372 250.258 613.307 249.818 613.307ZM260.646 612.782C261.354 612.236 262.147 611.838 263.026 611.585C263.913 611.333 264.687 611.207 265.346 611.207C266.005 611.207 266.514 611.223 266.872 611.256V605.836H269.301V624H267.116L267.018 622.547C266.522 623.207 265.769 623.695 264.76 624.012C264.369 624.134 263.97 624.195 263.563 624.195C263.165 624.195 262.77 624.155 262.379 624.073C261.989 623.992 261.598 623.858 261.208 623.67C260.825 623.475 260.459 623.223 260.109 622.914C259.759 622.596 259.446 622.21 259.169 621.754C258.583 620.753 258.29 619.569 258.29 618.202C258.29 616.834 258.506 615.728 258.937 614.881C259.376 614.027 259.946 613.327 260.646 612.782ZM262.123 614.234C261.708 614.625 261.387 615.13 261.159 615.748C260.939 616.358 260.829 617.103 260.829 617.982C260.829 618.853 260.935 619.573 261.146 620.143C261.358 620.704 261.623 621.144 261.94 621.461C262.501 622.031 263.177 622.315 263.966 622.315C264.984 622.315 265.826 621.941 266.493 621.192C266.664 621.005 266.786 620.838 266.859 620.692V613.185L266.615 613.16C266.241 613.111 265.793 613.087 265.272 613.087C264.76 613.087 264.21 613.181 263.625 613.368C263.039 613.547 262.538 613.836 262.123 614.234ZM276.161 607.74C276.161 608.204 276.007 608.562 275.697 608.814C275.396 609.059 275.018 609.181 274.562 609.181C274.106 609.181 273.728 609.059 273.427 608.814C273.134 608.562 272.987 608.204 272.987 607.74C272.987 607.268 273.134 606.91 273.427 606.666C273.728 606.422 274.106 606.3 274.562 606.3C275.018 606.3 275.396 606.422 275.697 606.666C276.007 606.91 276.161 607.268 276.161 607.74ZM273.305 611.402H275.746V624H273.305V611.402ZM277.87 611.402H280.495L283.925 621.62L287.367 611.402H289.979L285.158 624H282.704L277.87 611.402ZM294.911 607.74C294.911 608.204 294.757 608.562 294.447 608.814C294.146 609.059 293.768 609.181 293.312 609.181C292.856 609.181 292.478 609.059 292.177 608.814C291.884 608.562 291.737 608.204 291.737 607.74C291.737 607.268 291.884 606.91 292.177 606.666C292.478 606.422 292.856 606.3 293.312 606.3C293.768 606.3 294.146 606.422 294.447 606.666C294.757 606.91 294.911 607.268 294.911 607.74ZM292.055 611.402H294.496V624H292.055V611.402ZM300.246 612.782C300.954 612.236 301.747 611.838 302.626 611.585C303.513 611.333 304.286 611.207 304.945 611.207C305.604 611.207 306.113 611.223 306.471 611.256V605.836H308.9V624H306.715L306.618 622.547C306.121 623.207 305.368 623.695 304.359 624.012C303.969 624.134 303.57 624.195 303.163 624.195C302.764 624.195 302.37 624.155 301.979 624.073C301.588 623.992 301.198 623.858 300.807 623.67C300.425 623.475 300.058 623.223 299.708 622.914C299.359 622.596 299.045 622.21 298.769 621.754C298.183 620.753 297.89 619.569 297.89 618.202C297.89 616.834 298.105 615.728 298.537 614.881C298.976 614.027 299.546 613.327 300.246 612.782ZM301.723 614.234C301.308 614.625 300.986 615.13 300.758 615.748C300.539 616.358 300.429 617.103 300.429 617.982C300.429 618.853 300.535 619.573 300.746 620.143C300.958 620.704 301.222 621.144 301.54 621.461C302.101 622.031 302.777 622.315 303.566 622.315C304.583 622.315 305.425 621.941 306.093 621.192C306.264 621.005 306.386 620.838 306.459 620.692V613.185L306.215 613.16C305.84 613.111 305.393 613.087 304.872 613.087C304.359 613.087 303.81 613.181 303.224 613.368C302.638 613.547 302.138 613.836 301.723 614.234ZM321.132 620.912V611.402H323.573V624H321.376L321.156 622.669C319.952 623.687 318.621 624.195 317.165 624.195C315.618 624.195 314.524 623.768 313.881 622.914C313.214 622.043 312.88 620.541 312.88 618.409V611.402H315.321V618.287C315.321 619.793 315.537 620.818 315.968 621.363C316.351 621.852 317.079 622.096 318.153 622.096C319.236 622.096 320.229 621.701 321.132 620.912ZM328.078 621.754C327.809 621.29 327.593 620.745 327.431 620.118C327.276 619.492 327.199 618.674 327.199 617.665C327.199 616.655 327.414 615.728 327.846 614.881C328.285 614.027 328.855 613.327 329.555 612.782C330.914 611.732 332.602 611.207 334.621 611.207C335.67 611.207 336.464 611.231 337.001 611.28C337.001 611.28 337.396 611.321 338.185 611.402V624H335.988L335.89 622.547C335.402 623.198 334.657 623.683 333.656 624C333.274 624.122 332.879 624.183 332.472 624.183C332.073 624.183 331.679 624.142 331.288 624.061C330.897 623.98 330.507 623.845 330.116 623.658C329.734 623.471 329.368 623.223 329.018 622.914C328.668 622.596 328.354 622.21 328.078 621.754ZM335.744 613.197C335.223 613.132 334.702 613.099 334.181 613.099C333.668 613.099 333.119 613.193 332.533 613.38C331.947 613.559 331.447 613.844 331.032 614.234C330.169 615.048 329.738 616.289 329.738 617.958C329.738 619.536 330.108 620.704 330.849 621.461C331.41 622.022 332.086 622.303 332.875 622.303C333.892 622.303 334.73 621.933 335.39 621.192C335.552 621.005 335.67 620.838 335.744 620.692V613.197ZM342.616 605.836H345.058V619.227C345.058 620.838 345.424 621.786 346.156 622.071C346.4 622.169 346.661 622.218 346.938 622.218C347.214 622.218 347.462 622.185 347.682 622.12V624L347.23 624.049C347.084 624.065 346.942 624.073 346.803 624.073C345.241 624.073 344.114 623.561 343.422 622.535C342.885 621.729 342.616 620.631 342.616 619.239V605.836ZM358.754 607.008H369.728V609.132H361.195V614.137H367.653V616.188H361.195V621.852H369.728V624H358.754V607.008ZM371.645 611.402H374.269L377.699 621.62L381.142 611.402H383.754L378.932 624H376.479L371.645 611.402ZM386.403 621.754C386.134 621.29 385.919 620.745 385.756 620.118C385.601 619.492 385.524 618.674 385.524 617.665C385.524 616.655 385.74 615.728 386.171 614.881C386.61 614.027 387.18 613.327 387.88 612.782C389.239 611.732 390.928 611.207 392.946 611.207C393.996 611.207 394.789 611.231 395.326 611.28C395.326 611.28 395.721 611.321 396.51 611.402V624H394.313L394.215 622.547C393.727 623.198 392.982 623.683 391.981 624C391.599 624.122 391.204 624.183 390.797 624.183C390.399 624.183 390.004 624.142 389.613 624.061C389.223 623.98 388.832 623.845 388.441 623.658C388.059 623.471 387.693 623.223 387.343 622.914C386.993 622.596 386.68 622.21 386.403 621.754ZM394.069 613.197C393.548 613.132 393.027 613.099 392.506 613.099C391.994 613.099 391.444 613.193 390.858 613.38C390.272 613.559 389.772 613.844 389.357 614.234C388.494 615.048 388.063 616.289 388.063 617.958C388.063 619.536 388.433 620.704 389.174 621.461C389.735 622.022 390.411 622.303 391.2 622.303C392.217 622.303 393.056 621.933 393.715 621.192C393.878 621.005 393.996 620.838 394.069 620.692V613.197ZM400.941 605.836H403.383V619.227C403.383 620.838 403.749 621.786 404.481 622.071C404.726 622.169 404.986 622.218 405.263 622.218C405.539 622.218 405.788 622.185 406.007 622.12V624L405.556 624.049C405.409 624.065 405.267 624.073 405.128 624.073C403.566 624.073 402.439 623.561 401.747 622.535C401.21 621.729 400.941 620.631 400.941 619.239V605.836ZM416.981 620.912V611.402H419.423V624H417.226L417.006 622.669C415.801 623.687 414.471 624.195 413.014 624.195C411.468 624.195 410.373 623.768 409.73 622.914C409.063 622.043 408.729 620.541 408.729 618.409V611.402H411.171V618.287C411.171 619.793 411.387 620.818 411.818 621.363C412.2 621.852 412.929 622.096 414.003 622.096C415.085 622.096 416.078 621.701 416.981 620.912ZM423.927 621.754C423.659 621.29 423.443 620.745 423.28 620.118C423.126 619.492 423.048 618.674 423.048 617.665C423.048 616.655 423.264 615.728 423.695 614.881C424.135 614.027 424.704 613.327 425.404 612.782C426.763 611.732 428.452 611.207 430.47 611.207C431.52 611.207 432.313 611.231 432.851 611.28C432.851 611.28 433.245 611.321 434.035 611.402V624H431.837L431.74 622.547C431.251 623.198 430.507 623.683 429.506 624C429.123 624.122 428.729 624.183 428.322 624.183C427.923 624.183 427.528 624.142 427.138 624.061C426.747 623.98 426.356 623.845 425.966 623.658C425.583 623.471 425.217 623.223 424.867 622.914C424.517 622.596 424.204 622.21 423.927 621.754ZM431.593 613.197C431.072 613.132 430.552 613.099 430.031 613.099C429.518 613.099 428.969 613.193 428.383 613.38C427.797 613.559 427.296 613.844 426.881 614.234C426.019 615.048 425.587 616.289 425.587 617.958C425.587 619.536 425.958 620.704 426.698 621.461C427.26 622.022 427.935 622.303 428.725 622.303C429.742 622.303 430.58 621.933 431.239 621.192C431.402 621.005 431.52 620.838 431.593 620.692V613.197ZM442.47 622.071C442.738 622.169 443.145 622.218 443.69 622.218C444.236 622.218 444.691 622.153 445.058 622.022V623.976C444.887 624.016 444.639 624.041 444.313 624.049L443.544 624.073C443.373 624.073 443.243 624.073 443.153 624.073C441.583 624.073 440.423 623.561 439.674 622.535C439.072 621.705 438.771 620.606 438.771 619.239V613.27H436.964V612.123L438.771 611.402L439.357 608.277H441.212V611.402H445.119V613.27H441.212V619.227C441.212 620.822 441.632 621.77 442.47 622.071ZM451.21 607.74C451.21 608.204 451.055 608.562 450.746 608.814C450.445 609.059 450.067 609.181 449.611 609.181C449.155 609.181 448.777 609.059 448.476 608.814C448.183 608.562 448.036 608.204 448.036 607.74C448.036 607.268 448.183 606.91 448.476 606.666C448.777 606.422 449.155 606.3 449.611 606.3C450.067 606.3 450.445 606.422 450.746 606.666C451.055 606.91 451.21 607.268 451.21 607.74ZM448.354 611.402H450.795V624H448.354V611.402ZM453.822 617.677C453.822 615.699 454.453 614.096 455.714 612.867C456.894 611.72 458.355 611.146 460.097 611.146C461.806 611.146 463.234 611.72 464.381 612.867C465.602 614.088 466.212 615.691 466.212 617.677C466.212 619.654 465.598 621.249 464.369 622.462C463.205 623.618 461.777 624.195 460.084 624.195C458.367 624.195 456.911 623.618 455.714 622.462C454.453 621.249 453.822 619.654 453.822 617.677ZM456.361 617.677C456.361 619.76 457.029 621.176 458.363 621.925C458.835 622.185 459.401 622.315 460.06 622.315C460.719 622.315 461.277 622.185 461.732 621.925C462.188 621.656 462.562 621.306 462.855 620.875C463.401 620.045 463.673 618.979 463.673 617.677C463.673 615.61 463.018 614.194 461.708 613.429C461.252 613.16 460.707 613.026 460.072 613.026C459.438 613.026 458.884 613.16 458.412 613.429C457.948 613.689 457.566 614.035 457.265 614.466C456.662 615.313 456.361 616.383 456.361 617.677ZM474.892 613.307C473.679 613.307 472.601 613.718 471.657 614.54V624H469.215V611.402H471.474L471.645 612.77C472.971 611.728 474.342 611.207 475.758 611.207C477.256 611.207 478.354 611.655 479.054 612.55C479.787 613.494 480.153 615.016 480.153 617.115V624H477.711V617.115C477.711 615.097 477.166 613.893 476.076 613.502C475.726 613.372 475.331 613.307 474.892 613.307Z" fill="black"/>
<path d="M23.8159 595.44C24.2228 596.018 24.5443 596.758 24.7803 597.662C25.0081 598.565 25.1221 599.672 25.1221 600.982C25.1221 602.284 25.0448 603.598 24.8901 604.925H22.522C22.7905 603.737 22.9248 602.54 22.9248 601.336C22.9248 600.132 22.8597 599.228 22.7295 598.626C22.5911 598.024 22.4121 597.54 22.1924 597.173C21.7855 596.498 21.2565 596.16 20.6055 596.16C20.1009 596.16 19.7103 596.29 19.4336 596.551C19.0023 596.966 18.6076 597.564 18.2495 598.345L16.8213 601.47C16.3167 602.544 15.8488 603.305 15.4175 603.753C14.4897 604.713 13.4155 605.193 12.1948 605.193C10.9416 605.193 9.92839 604.648 9.15527 603.558C8.30892 602.361 7.88574 600.66 7.88574 598.455C7.88574 597.031 7.94271 595.729 8.05664 594.549H10.3882C10.1603 595.55 10.0464 596.669 10.0464 597.906C10.0464 599.135 10.1115 600.03 10.2417 600.591C10.3638 601.145 10.5225 601.58 10.7178 601.897C11.0758 602.475 11.5479 602.764 12.1338 602.764C12.7035 602.764 13.1755 602.581 13.5498 602.215C13.8672 601.889 14.2334 601.295 14.6484 600.433L16.1743 597.222C16.6789 596.156 17.1549 595.411 17.6025 594.988C18.0501 594.557 18.5018 594.24 18.9575 594.036C19.4051 593.833 19.9463 593.731 20.5811 593.731C21.2077 593.731 21.8018 593.869 22.3633 594.146C22.9167 594.423 23.4009 594.854 23.8159 595.44ZM24.9634 581.463C25.118 581.951 25.1953 582.798 25.1953 584.002C25.1953 585.206 25.0488 586.232 24.7559 587.078C24.4629 587.916 24.0316 588.632 23.4619 589.227C22.2819 590.455 20.6462 591.07 18.5547 591.07C16.5283 591.07 14.9333 590.333 13.7695 588.86C12.7279 587.542 12.207 585.923 12.207 584.002C12.207 582.814 12.2477 582 12.3291 581.561H14.502C14.2822 582.244 14.1724 583.025 14.1724 583.904C14.1724 584.775 14.2944 585.499 14.5386 586.077C14.7746 586.655 15.096 587.127 15.5029 587.493C16.276 588.185 17.2933 588.531 18.5547 588.531C20.6868 588.531 22.1069 587.762 22.8149 586.224C23.0672 585.678 23.1934 585.145 23.1934 584.625C23.1934 584.104 23.1812 583.705 23.1567 583.428C23.1323 583.143 23.0998 582.875 23.0591 582.623C22.9696 582.085 22.876 581.699 22.7783 581.463H24.9634ZM22.7539 577.471C22.29 577.74 21.7448 577.955 21.1182 578.118C20.4915 578.273 19.6737 578.35 18.6646 578.35C17.6554 578.35 16.7277 578.134 15.8813 577.703C15.0269 577.264 14.327 576.694 13.7817 575.994C12.7319 574.635 12.207 572.946 12.207 570.928C12.207 569.878 12.2314 569.085 12.2803 568.548C12.2803 568.548 12.321 568.153 12.4023 567.364H25V569.561L23.5474 569.659C24.1984 570.147 24.6826 570.892 25 571.893C25.1221 572.275 25.1831 572.67 25.1831 573.077C25.1831 573.475 25.1424 573.87 25.061 574.261C24.9797 574.651 24.8454 575.042 24.6582 575.433C24.471 575.815 24.2228 576.181 23.9136 576.531C23.5962 576.881 23.2096 577.194 22.7539 577.471ZM14.1968 569.805C14.1317 570.326 14.0991 570.847 14.0991 571.368C14.0991 571.88 14.1927 572.43 14.3799 573.016C14.5589 573.602 14.8438 574.102 15.2344 574.517C16.0482 575.38 17.2892 575.811 18.9575 575.811C20.5363 575.811 21.7041 575.441 22.4609 574.7C23.0225 574.139 23.3032 573.463 23.3032 572.674C23.3032 571.657 22.9329 570.818 22.1924 570.159C22.0052 569.996 21.8384 569.878 21.6919 569.805H14.1968ZM6.83594 562.933V560.491H20.2271C21.8384 560.491 22.7865 560.125 23.0713 559.393C23.1689 559.148 23.2178 558.888 23.2178 558.611C23.2178 558.335 23.1852 558.086 23.1201 557.867H25L25.0488 558.318C25.0651 558.465 25.0732 558.607 25.0732 558.746C25.0732 560.308 24.5605 561.435 23.5352 562.127C22.7295 562.664 21.6309 562.933 20.2393 562.933H6.83594ZM25.1953 549.224C25.1953 553.83 22.9451 556.133 18.4448 556.133C16.508 556.133 14.9577 555.494 13.7939 554.217C12.736 553.069 12.207 551.759 12.207 550.286C12.207 548.683 12.7441 547.43 13.8184 546.526C14.8193 545.688 16.158 545.269 17.8345 545.269H18.7866V553.594C21.0897 553.594 22.4976 552.654 23.0103 550.774C23.1323 550.327 23.1934 549.639 23.1934 548.711C23.1934 547.776 23.0672 546.86 22.8149 545.965H24.8779C25.0895 546.86 25.1953 547.946 25.1953 549.224ZM16.9922 547.71C16.2109 547.71 15.5518 547.926 15.0146 548.357C14.3962 548.862 14.0869 549.558 14.0869 550.445C14.0869 551.381 14.384 552.142 14.978 552.728C15.5314 553.265 16.2028 553.533 16.9922 553.533V547.71ZM22.7295 542.278V539.922H25C26.5788 539.922 27.7425 540.228 28.4912 540.838C29.3213 541.521 29.7363 542.636 29.7363 544.183H27.7222C27.7222 543.157 27.2135 542.555 26.1963 542.376C25.8545 542.311 25.4557 542.278 25 542.278H22.7295ZM8.00781 527.825V523.003C8.00781 519.789 8.95996 517.718 10.8643 516.79C11.5641 516.456 12.3942 516.29 13.3545 516.29C14.3148 516.29 15.1367 516.46 15.8203 516.802C16.5039 517.144 17.0654 517.604 17.5049 518.182C18.3512 519.305 18.7744 520.806 18.7744 522.686V525.384H25V527.825H8.00781ZM16.8213 523.162C16.8213 521.689 16.5365 520.599 15.9668 519.891C15.3971 519.183 14.5101 518.829 13.3057 518.829C11.7025 518.829 10.6689 519.573 10.2051 521.062C10.0423 521.583 9.96094 522.214 9.96094 522.955V525.384H16.8213V523.162ZM14.6362 505.401C14.506 505.848 14.4409 506.386 14.4409 507.012C14.4409 507.631 14.506 508.139 14.6362 508.538C14.7583 508.937 14.9089 509.287 15.0879 509.588C15.4134 510.141 15.7796 510.544 16.1865 510.796H25V513.238H12.4023V510.894L14.1479 510.796C13.383 510.186 12.8092 509.295 12.4268 508.123C12.2803 507.7 12.207 507.216 12.207 506.67C12.207 506.125 12.2477 505.702 12.3291 505.401H14.6362ZM25.1953 497.1C25.1953 501.706 22.9451 504.009 18.4448 504.009C16.508 504.009 14.9577 503.37 13.7939 502.093C12.736 500.945 12.207 499.635 12.207 498.162C12.207 496.559 12.7441 495.306 13.8184 494.402C14.8193 493.564 16.158 493.145 17.8345 493.145H18.7866V501.47C21.0897 501.47 22.4976 500.53 23.0103 498.65C23.1323 498.203 23.1934 497.515 23.1934 496.587C23.1934 495.652 23.0672 494.736 22.8149 493.841H24.8779C25.0895 494.736 25.1953 495.822 25.1953 497.1ZM16.9922 495.586C16.2109 495.586 15.5518 495.802 15.0146 496.233C14.3962 496.738 14.0869 497.434 14.0869 498.321C14.0869 499.257 14.384 500.018 14.978 500.604C15.5314 501.141 16.2028 501.409 16.9922 501.409V495.586ZM25.1953 484.576C25.1953 489.182 22.9451 491.485 18.4448 491.485C16.508 491.485 14.9577 490.846 13.7939 489.568C12.736 488.421 12.207 487.111 12.207 485.638C12.207 484.035 12.7441 482.781 13.8184 481.878C14.8193 481.04 16.158 480.621 17.8345 480.621H18.7866V488.946C21.0897 488.946 22.4976 488.006 23.0103 486.126C23.1323 485.678 23.1934 484.991 23.1934 484.063C23.1934 483.127 23.0672 482.212 22.8149 481.316H24.8779C25.0895 482.212 25.1953 483.298 25.1953 484.576ZM16.9922 483.062C16.2109 483.062 15.5518 483.278 15.0146 483.709C14.3962 484.214 14.0869 484.909 14.0869 485.796C14.0869 486.732 14.384 487.493 14.978 488.079C15.5314 488.616 16.2028 488.885 16.9922 488.885V483.062ZM15.5396 475.445L25 475.433V477.874H12.4023L12.4023 475.628L13.7817 475.457C13.033 474.562 12.5448 473.52 12.3169 472.332C12.2437 471.95 12.207 471.575 12.207 471.209C12.207 469.687 12.8499 468.54 14.1357 467.767C12.8499 466.351 12.207 464.869 12.207 463.323C12.207 461.793 12.6668 460.678 13.5864 459.979C14.5223 459.279 16.0685 458.929 18.2251 458.929H25V461.37H18.3105C16.1947 461.37 14.9292 461.879 14.5142 462.896C14.3758 463.238 14.3066 463.637 14.3066 464.092C14.3066 465.183 14.6973 466.184 15.4785 467.095H25V469.537H18.2129C16.7643 469.537 15.7471 469.752 15.1611 470.184C14.5915 470.599 14.3066 471.343 14.3066 472.417C14.3066 473.484 14.7176 474.493 15.5396 475.445ZM29.8828 452.386V454.827H12.4023V452.63L13.8428 452.532C13.1917 452.044 12.7075 451.295 12.3901 450.286C12.2681 449.896 12.207 449.501 12.207 449.102C12.207 448.695 12.2518 448.296 12.3413 447.906C12.4227 447.515 12.561 447.129 12.7563 446.746C12.9435 446.364 13.1958 445.997 13.5132 445.647C13.8224 445.298 14.209 444.988 14.6729 444.72C15.6738 444.134 16.9149 443.841 18.396 443.841C20.6584 443.841 22.3877 444.622 23.584 446.185C24.6501 447.568 25.1831 449.253 25.1831 451.238V451.849C25.1831 452.044 25.179 452.223 25.1709 452.386H29.8828ZM23.1934 452.386C23.2585 452.158 23.291 451.71 23.291 451.043C23.291 450.376 23.1974 449.749 23.0103 449.163C22.8231 448.577 22.5342 448.081 22.1436 447.674C21.3135 446.811 20.0643 446.38 18.396 446.38C16.8254 446.38 15.6657 446.754 14.917 447.503C14.3636 448.056 14.0869 448.732 14.0869 449.529C14.0869 450.53 14.4572 451.36 15.1978 452.02C15.3849 452.19 15.5518 452.312 15.6982 452.386H23.1934ZM23.0713 435.882C23.1689 435.613 23.2178 435.206 23.2178 434.661C23.2178 434.116 23.1527 433.66 23.0225 433.294H24.9756C25.0163 433.465 25.0407 433.713 25.0488 434.039L25.0732 434.808C25.0732 434.979 25.0732 435.109 25.0732 435.198C25.0732 436.769 24.5605 437.929 23.5352 438.677C22.7051 439.279 21.6064 439.581 20.2393 439.581H14.27V441.387H13.1226L12.4023 439.581L9.27734 438.995V437.139H12.4023V433.233H14.27V437.139H20.2271C21.8221 437.139 22.7702 436.72 23.0713 435.882ZM8.74023 427.142C9.2041 427.142 9.56217 427.296 9.81445 427.605C10.0586 427.907 10.1807 428.285 10.1807 428.741C10.1807 429.196 10.0586 429.575 9.81445 429.876C9.56217 430.169 9.2041 430.315 8.74023 430.315C8.26823 430.315 7.91016 430.169 7.66602 429.876C7.42188 429.575 7.2998 429.196 7.2998 428.741C7.2998 428.285 7.42188 427.907 7.66602 427.605C7.91016 427.296 8.26823 427.142 8.74023 427.142ZM12.4023 429.998V427.557H25V429.998H12.4023ZM12.4023 425.433V422.808L22.6196 419.378L12.4023 415.936V413.323L25 418.145V420.599L12.4023 425.433ZM25.1953 405.352C25.1953 409.958 22.9451 412.261 18.4448 412.261C16.508 412.261 14.9577 411.622 13.7939 410.345C12.736 409.197 12.207 407.887 12.207 406.414C12.207 404.811 12.7441 403.558 13.8184 402.654C14.8193 401.816 16.158 401.397 17.8345 401.397H18.7866L18.7866 409.722C21.0897 409.722 22.4976 408.782 23.0103 406.902C23.1323 406.455 23.1934 405.767 23.1934 404.839C23.1934 403.903 23.0672 402.988 22.8149 402.093H24.8779C25.0895 402.988 25.1953 404.074 25.1953 405.352ZM16.9922 403.838C16.2109 403.838 15.5518 404.054 15.0146 404.485C14.3962 404.99 14.0869 405.686 14.0869 406.573C14.0869 407.509 14.384 408.27 14.978 408.855C15.5314 409.393 16.2028 409.661 16.9922 409.661L16.9922 403.838Z" fill="black"/>
<path d="M711.992 45.0752V49.897C711.992 53.1115 711.04 55.1826 709.136 56.1104C708.436 56.444 707.606 56.6108 706.646 56.6108C705.685 56.6108 704.863 56.4399 704.18 56.0981C703.496 55.7563 702.935 55.2965 702.495 54.7188C701.649 53.5957 701.226 52.0942 701.226 50.2144V47.5166H695V45.0752H711.992ZM703.179 49.7383C703.179 51.2113 703.464 52.3018 704.033 53.0098C704.603 53.7178 705.49 54.0718 706.694 54.0718C708.298 54.0718 709.331 53.3271 709.795 51.8379C709.958 51.3171 710.039 50.6864 710.039 49.9458V47.5166H703.179V49.7383ZM705.364 67.4995C705.494 67.0519 705.559 66.5148 705.559 65.8882C705.559 65.2697 705.494 64.7611 705.364 64.3623C705.242 63.9635 705.091 63.6136 704.912 63.3125C704.587 62.7591 704.22 62.3563 703.813 62.104H695V59.6626H707.598V62.0063L705.852 62.104C706.617 62.7144 707.191 63.6055 707.573 64.7773C707.72 65.2005 707.793 65.6847 707.793 66.23C707.793 66.7752 707.752 67.1984 707.671 67.4995H705.364ZM694.805 75.8003C694.805 71.1942 697.055 68.8911 701.555 68.8911C703.492 68.8911 705.042 69.5299 706.206 70.8076C707.264 71.9551 707.793 73.2653 707.793 74.7383C707.793 76.3415 707.256 77.5947 706.182 78.498C705.181 79.3363 703.842 79.7554 702.166 79.7554H701.213V71.4302C698.91 71.4302 697.502 72.3701 696.99 74.25C696.868 74.6976 696.807 75.3853 696.807 76.313C696.807 77.2489 696.933 78.1644 697.185 79.0596H695.122C694.91 78.1644 694.805 77.078 694.805 75.8003ZM703.008 77.314C703.789 77.314 704.448 77.0983 704.985 76.667C705.604 76.1624 705.913 75.4666 705.913 74.5796C705.913 73.6437 705.616 72.8828 705.022 72.2969C704.469 71.7598 703.797 71.4912 703.008 71.4912V77.314ZM695.037 91.4863C694.882 90.998 694.805 90.1517 694.805 88.9473C694.805 87.7428 694.951 86.7174 695.244 85.8711C695.537 85.0329 695.968 84.3167 696.538 83.7227C697.718 82.4938 699.354 81.8794 701.445 81.8794C703.472 81.8794 705.067 82.6159 706.23 84.0889C707.272 85.4072 707.793 87.0267 707.793 88.9473C707.793 90.1354 707.752 90.9492 707.671 91.3887H705.498C705.718 90.7051 705.828 89.9238 705.828 89.0449C705.828 88.1742 705.706 87.4499 705.461 86.8721C705.225 86.2943 704.904 85.8223 704.497 85.4561C703.724 84.7643 702.707 84.4185 701.445 84.4185C699.313 84.4185 697.893 85.1875 697.185 86.7256C696.933 87.2708 696.807 87.8039 696.807 88.3247C696.807 88.8455 696.819 89.2443 696.843 89.521C696.868 89.8058 696.9 90.0744 696.941 90.3267C697.03 90.8638 697.124 91.2503 697.222 91.4863H695.037ZM711.26 97.7607C710.796 97.7607 710.438 97.6061 710.186 97.2969C709.941 96.9958 709.819 96.6174 709.819 96.1616C709.819 95.7059 709.941 95.3275 710.186 95.0264C710.438 94.7334 710.796 94.5869 711.26 94.5869C711.732 94.5869 712.09 94.7334 712.334 95.0264C712.578 95.3275 712.7 95.7059 712.7 96.1616C712.7 96.6174 712.578 96.9958 712.334 97.2969C712.09 97.6061 711.732 97.7607 711.26 97.7607ZM707.598 94.9043V97.3457H695V94.9043H707.598ZM694.805 104.279C694.805 103.262 694.878 102.233 695.024 101.191H697.185C696.933 102.249 696.807 103.323 696.807 104.414C696.807 106.595 697.266 107.685 698.186 107.685C698.536 107.685 698.796 107.6 698.967 107.429C699.236 107.176 699.504 106.778 699.773 106.232L700.591 104.45C701.169 103.295 701.632 102.546 701.982 102.204C702.633 101.561 703.407 101.24 704.302 101.24C705.311 101.24 706.133 101.708 706.768 102.644C707.451 103.653 707.793 105.069 707.793 106.892C707.793 107.811 707.728 108.739 707.598 109.675H705.51C705.697 108.649 705.791 107.754 705.791 106.989C705.791 106.232 705.742 105.642 705.645 105.219C705.547 104.804 705.425 104.491 705.278 104.279C705.05 103.946 704.753 103.779 704.387 103.779C704.029 103.779 703.736 103.893 703.508 104.121C703.289 104.357 703.049 104.723 702.788 105.219L701.921 107.014C701.311 108.186 700.843 108.938 700.518 109.272C699.899 109.907 699.122 110.224 698.186 110.224C697.185 110.224 696.379 109.72 695.769 108.71C695.126 107.653 694.805 106.175 694.805 104.279ZM711.26 116.535C710.796 116.535 710.438 116.381 710.186 116.071C709.941 115.77 709.819 115.392 709.819 114.936C709.819 114.48 709.941 114.102 710.186 113.801C710.438 113.508 710.796 113.361 711.26 113.361C711.732 113.361 712.09 113.508 712.334 113.801C712.578 114.102 712.7 114.48 712.7 114.936C712.7 115.392 712.578 115.77 712.334 116.071C712.09 116.381 711.732 116.535 711.26 116.535ZM707.598 113.679V116.12H695V113.679H707.598ZM701.323 119.147C703.301 119.147 704.904 119.778 706.133 121.04C707.28 122.22 707.854 123.68 707.854 125.422C707.854 127.131 707.28 128.559 706.133 129.707C704.912 130.927 703.309 131.538 701.323 131.538C699.346 131.538 697.751 130.923 696.538 129.694C695.382 128.531 694.805 127.102 694.805 125.41C694.805 123.693 695.382 122.236 696.538 121.04C697.751 119.778 699.346 119.147 701.323 119.147ZM701.323 121.687C699.24 121.687 697.824 122.354 697.075 123.688C696.815 124.16 696.685 124.726 696.685 125.385C696.685 126.044 696.815 126.602 697.075 127.058C697.344 127.513 697.694 127.888 698.125 128.181C698.955 128.726 700.021 128.999 701.323 128.999C703.39 128.999 704.806 128.343 705.571 127.033C705.84 126.577 705.974 126.032 705.974 125.397C705.974 124.763 705.84 124.209 705.571 123.737C705.311 123.273 704.965 122.891 704.534 122.59C703.687 121.988 702.617 121.687 701.323 121.687ZM705.693 140.217C705.693 139.004 705.282 137.926 704.46 136.982H695V134.541H707.598V136.799L706.23 136.97C707.272 138.296 707.793 139.667 707.793 141.083C707.793 142.581 707.345 143.68 706.45 144.379C705.506 145.112 703.984 145.478 701.885 145.478H695V143.037H701.885C703.903 143.037 705.107 142.491 705.498 141.401C705.628 141.051 705.693 140.656 705.693 140.217ZM697.271 149.445V151.801H695C693.421 151.801 692.257 151.496 691.509 150.886C690.679 150.202 690.264 149.087 690.264 147.541H692.278C692.278 148.566 692.786 149.169 693.804 149.348C694.146 149.413 694.544 149.445 695 149.445H697.271ZM703.472 163.154C704.798 163.154 705.999 163.353 707.073 163.752C708.147 164.151 709.062 164.704 709.819 165.412C711.398 166.901 712.188 168.834 712.188 171.21C712.188 173.595 711.398 175.524 709.819 176.997C708.216 178.494 706.1 179.243 703.472 179.243C700.843 179.243 698.735 178.494 697.148 176.997C695.586 175.532 694.805 173.603 694.805 171.21C694.805 168.826 695.586 166.893 697.148 165.412C698.743 163.907 700.851 163.154 703.472 163.154ZM703.484 165.595C701.628 165.595 700.094 166.047 698.882 166.95C697.531 167.967 696.855 169.388 696.855 171.21C696.855 173.033 697.531 174.449 698.882 175.458C700.078 176.354 701.604 176.801 703.459 176.801C705.331 176.801 706.873 176.354 708.086 175.458C709.453 174.449 710.137 173.033 710.137 171.21C710.137 169.379 709.453 167.959 708.086 166.95C706.873 166.047 705.339 165.595 703.484 165.595ZM707.598 180.744V183.369L697.38 186.799L707.598 190.241V192.854L695 188.032V185.578L707.598 180.744ZM694.805 200.825C694.805 196.219 697.055 193.916 701.555 193.916C703.492 193.916 705.042 194.554 706.206 195.832C707.264 196.979 707.793 198.29 707.793 199.763C707.793 201.366 707.256 202.619 706.182 203.522C705.181 204.361 703.842 204.78 702.166 204.78H701.213V196.455C698.91 196.455 697.502 197.395 696.99 199.274C696.868 199.722 696.807 200.41 696.807 201.337C696.807 202.273 696.933 203.189 697.185 204.084H695.122C694.91 203.189 694.805 202.102 694.805 200.825ZM703.008 202.338C703.789 202.338 704.448 202.123 704.985 201.691C705.604 201.187 705.913 200.491 705.913 199.604C705.913 198.668 705.616 197.907 705.022 197.321C704.469 196.784 703.797 196.516 703.008 196.516V202.338ZM705.364 215.473C705.494 215.026 705.559 214.488 705.559 213.862C705.559 213.243 705.494 212.735 705.364 212.336C705.242 211.937 705.091 211.587 704.912 211.286C704.587 210.733 704.22 210.33 703.813 210.078H695V207.636H707.598V209.98L705.852 210.078C706.617 210.688 707.191 211.579 707.573 212.751C707.72 213.174 707.793 213.658 707.793 214.204C707.793 214.749 707.752 215.172 707.671 215.473H705.364ZM705.693 223.554C705.693 222.35 705.282 221.276 704.46 220.332H695V217.89H713.164V220.332H706.243C707.276 221.65 707.793 223.013 707.793 224.421C707.793 225.926 707.345 227.029 706.45 227.729C705.506 228.461 703.984 228.828 701.885 228.828H695V226.386H701.885C703.903 226.386 705.107 225.837 705.498 224.738C705.628 224.388 705.693 223.994 705.693 223.554ZM694.805 238.349C694.805 233.743 697.055 231.44 701.555 231.44C703.492 231.44 705.042 232.079 706.206 233.356C707.264 234.504 707.793 235.814 707.793 237.287C707.793 238.89 707.256 240.144 706.182 241.047C705.181 241.885 703.842 242.304 702.166 242.304H701.213V233.979C698.91 233.979 697.502 234.919 696.99 236.799C696.868 237.246 696.807 237.934 696.807 238.862C696.807 239.798 696.933 240.713 697.185 241.608H695.122C694.91 240.713 694.805 239.627 694.805 238.349ZM703.008 239.863C703.789 239.863 704.448 239.647 704.985 239.216C705.604 238.711 705.913 238.015 705.913 237.128C705.913 236.193 705.616 235.432 705.022 234.846C704.469 234.309 703.797 234.04 703.008 234.04V239.863ZM697.246 245.551C697.71 245.283 698.255 245.067 698.882 244.904C699.508 244.75 700.326 244.672 701.335 244.672C702.345 244.672 703.272 244.888 704.119 245.319C704.973 245.759 705.673 246.328 706.218 247.028C707.268 248.387 707.793 250.076 707.793 252.094C707.793 253.144 707.769 253.938 707.72 254.475C707.72 254.475 707.679 254.869 707.598 255.659H695V253.461L696.453 253.364C695.802 252.875 695.317 252.131 695 251.13C694.878 250.747 694.817 250.353 694.817 249.946C694.817 249.547 694.858 249.152 694.939 248.762C695.02 248.371 695.155 247.98 695.342 247.59C695.529 247.207 695.777 246.841 696.086 246.491C696.404 246.141 696.79 245.828 697.246 245.551ZM705.803 253.217C705.868 252.696 705.901 252.176 705.901 251.655C705.901 251.142 705.807 250.593 705.62 250.007C705.441 249.421 705.156 248.92 704.766 248.505C703.952 247.643 702.711 247.211 701.042 247.211C699.464 247.211 698.296 247.582 697.539 248.322C696.978 248.884 696.697 249.559 696.697 250.349C696.697 251.366 697.067 252.204 697.808 252.863C697.995 253.026 698.162 253.144 698.308 253.217H705.803ZM706.218 261.469C706.764 262.177 707.162 262.971 707.415 263.85C707.667 264.737 707.793 265.51 707.793 266.169C707.793 266.828 707.777 267.337 707.744 267.695H713.164V270.124H695V267.939L696.453 267.841C695.793 267.345 695.305 266.592 694.988 265.583C694.866 265.192 694.805 264.794 694.805 264.387C694.805 263.988 694.845 263.593 694.927 263.203C695.008 262.812 695.142 262.421 695.33 262.031C695.525 261.648 695.777 261.282 696.086 260.932C696.404 260.582 696.79 260.269 697.246 259.992C698.247 259.406 699.431 259.113 700.798 259.113C702.166 259.113 703.272 259.329 704.119 259.76C704.973 260.2 705.673 260.769 706.218 261.469ZM704.766 262.946C704.375 262.531 703.87 262.21 703.252 261.982C702.642 261.762 701.897 261.652 701.018 261.652C700.147 261.652 699.427 261.758 698.857 261.97C698.296 262.181 697.856 262.446 697.539 262.763C696.969 263.325 696.685 264 696.685 264.79C696.685 265.807 697.059 266.649 697.808 267.316C697.995 267.487 698.162 267.609 698.308 267.683H705.815L705.84 267.438C705.889 267.064 705.913 266.617 705.913 266.096C705.913 265.583 705.819 265.034 705.632 264.448C705.453 263.862 705.164 263.361 704.766 262.946Z" fill="black"/>
</svg>
